<?xml version="1.0" encoding="UTF-8"?>
<svg xmlns="http://www.w3.org/2000/svg" xmlns:xlink="http://www.w3.org/1999/xlink" width="172px" height="65px" viewBox="0 0 171 65" version="1.1">
<g id="surface1">
<path style=" stroke:none;fill-rule:evenodd;fill:rgb(66.274512%,57.254905%,49.019608%);fill-opacity:1;" d="M 43.535156 9.117188 C 46.425781 10.554688 49.039062 12.53125 51.230469 14.953125 L 52.246094 14.035156 C 49.964844 11.511719 47.25 9.453125 44.25 7.945312 Z M 42.421875 7.105469 C 40.949219 6.5 39.421875 6.015625 37.855469 5.671875 C 32.304688 4.449219 26.515625 4.992188 21.289062 7.222656 C 16.066406 9.453125 11.664062 13.261719 8.695312 18.117188 C 7.464844 20.132812 6.507812 22.289062 5.835938 24.527344 L 7.164062 24.847656 C 7.800781 22.746094 8.707031 20.726562 9.863281 18.832031 C 12.679688 14.21875 16.863281 10.601562 21.824219 8.484375 C 26.789062 6.363281 32.289062 5.847656 37.5625 7.007812 C 38.980469 7.320312 40.363281 7.75 41.699219 8.289062 Z M 4.742188 34.3125 C 4.558594 31.664062 4.761719 29.023438 5.328125 26.460938 L 6.65625 26.78125 C 6.121094 29.207031 5.929688 31.710938 6.101562 34.21875 C 6.46875 39.515625 8.445312 44.570312 11.757812 48.707031 L 10.894531 49.8125 C 10.890625 49.808594 10.890625 49.808594 10.890625 49.804688 C 7.28125 45.40625 5.132812 39.992188 4.742188 34.3125 Z M 12.238281 51.332031 C 15.675781 54.9375 20.035156 57.542969 24.863281 58.851562 C 30.34375 60.339844 36.152344 60.074219 41.480469 58.097656 C 46.808594 56.121094 51.386719 52.53125 54.582031 47.824219 L 53.453125 47.054688 C 50.417969 51.523438 46.066406 54.9375 41.007812 56.816406 C 35.945312 58.691406 30.429688 58.941406 25.21875 57.53125 C 20.570312 56.269531 16.375 53.742188 13.09375 50.246094 Z M 12.238281 51.332031 "/>
<path style=" stroke:none;fill-rule:evenodd;fill:rgb(66.274512%,57.254905%,49.019608%);fill-opacity:1;" d="M 38.335938 4.53125 C 35.273438 3.855469 32.140625 3.699219 29.0625 4.042969 L 28.714844 2.570312 C 32.015625 2.179688 35.375 2.339844 38.65625 3.0625 C 44.746094 4.402344 50.265625 7.609375 54.449219 12.242188 L 53.339844 13.25 C 49.363281 8.851562 44.117188 5.804688 38.335938 4.53125 Z M 20.476562 4.765625 C 22.5 3.902344 24.597656 3.269531 26.738281 2.871094 L 27.082031 4.335938 C 25.027344 4.714844 23.007812 5.320312 21.066406 6.148438 C 15.617188 8.472656 11.027344 12.445312 7.933594 17.507812 C 4.839844 22.570312 3.398438 28.472656 3.808594 34.394531 C 4.21875 40.316406 6.457031 45.960938 10.21875 50.546875 C 13.980469 55.132812 19.070312 58.429688 24.789062 59.980469 C 24.878906 60.003906 24.96875 60.027344 25.058594 60.050781 L 24.492188 61.457031 C 24.460938 61.449219 24.429688 61.441406 24.398438 61.429688 C 18.378906 59.800781 13.019531 56.328125 9.0625 51.503906 C 5.101562 46.675781 2.742188 40.730469 2.3125 34.496094 C 1.882812 28.265625 3.398438 22.050781 6.65625 16.722656 C 9.910156 11.394531 14.742188 7.214844 20.476562 4.765625 Z M 26.460938 61.914062 C 31.855469 62.972656 37.453125 62.527344 42.636719 60.605469 C 48.484375 58.433594 53.507812 54.492188 57.015625 49.328125 L 55.777344 48.480469 C 52.445312 53.390625 47.671875 57.132812 42.117188 59.195312 C 37.285156 60.988281 32.070312 61.429688 27.03125 60.492188 Z M 26.460938 61.914062 "/>
<path style=" stroke:none;fill-rule:evenodd;fill:rgb(66.274512%,57.254905%,49.019608%);fill-opacity:1;" d="M 15.851562 6.007812 C 17.242188 5.132812 18.707031 4.363281 20.230469 3.710938 C 26.1875 1.171875 32.78125 0.550781 39.105469 1.941406 C 45.035156 3.25 50.445312 6.261719 54.679688 10.597656 L 31.625 31.527344 L 30.496094 32.554688 L 31.753906 33.410156 L 45.78125 42.976562 L 46.609375 42.089844 L 33.445312 33.113281 L 32.429688 32.417969 L 33.339844 31.589844 L 55.5 11.472656 L 56.386719 10.667969 C 56.121094 10.371094 55.847656 10.078125 55.566406 9.792969 C 51.167969 5.269531 45.535156 2.128906 39.359375 0.769531 C 32.796875 -0.671875 25.945312 -0.03125 19.761719 2.609375 C 18.125 3.308594 16.554688 4.136719 15.070312 5.085938 Z M 13.410156 6.21875 C 10 8.707031 7.089844 11.851562 4.863281 15.496094 C 2.511719 19.34375 1.003906 23.613281 0.398438 28.035156 L 1.636719 27.855469 C 2.246094 23.71875 3.679688 19.726562 5.882812 16.125 C 8.042969 12.585938 10.871094 9.539062 14.1875 7.136719 Z M 0.179688 34.660156 C 0.0742188 33.128906 0.078125 31.601562 0.1875 30.085938 L 1.402344 29.910156 C 1.277344 31.457031 1.265625 33.015625 1.375 34.578125 C 1.824219 41.046875 4.269531 47.21875 8.378906 52.230469 C 12.488281 57.242188 18.054688 60.84375 24.300781 62.539062 C 27.882812 63.507812 31.585938 63.824219 35.234375 63.492188 L 35.78125 64.644531 C 31.847656 65.054688 27.851562 64.742188 23.988281 63.695312 C 17.503906 61.9375 11.722656 58.195312 7.457031 52.992188 C 3.1875 47.789062 0.644531 41.378906 0.179688 34.660156 Z M 37.855469 64.359375 C 39.820312 64.023438 41.761719 63.503906 43.652344 62.804688 C 49.578125 60.605469 54.726562 56.714844 58.460938 51.625 C 58.699219 51.304688 58.929688 50.976562 59.152344 50.644531 L 58.246094 50.027344 L 57.417969 50.914062 L 57.472656 50.949219 C 53.875 55.832031 48.929688 59.566406 43.238281 61.679688 C 41.3125 62.394531 39.328125 62.910156 37.320312 63.230469 Z M 37.855469 64.359375 "/>
<path style=" stroke:none;fill-rule:nonzero;fill:rgb(66.274512%,57.254905%,49.019608%);fill-opacity:1;" d="M 64.519531 25.226562 C 65.011719 25.226562 65.5 25.261719 65.988281 25.332031 C 66.480469 25.394531 66.949219 25.472656 67.398438 25.566406 C 67.855469 25.652344 68.285156 25.742188 68.691406 25.828125 C 69.097656 25.914062 69.460938 25.976562 69.785156 26.015625 C 69.710938 26.242188 69.671875 26.636719 69.671875 27.207031 C 69.671875 28.3125 69.839844 29.273438 70.167969 30.085938 C 70.132812 30.195312 70.015625 30.265625 69.824219 30.289062 L 69.421875 29.429688 C 69.21875 28.996094 68.980469 28.570312 68.699219 28.152344 C 68.417969 27.726562 68.082031 27.351562 67.691406 27.019531 C 67.296875 26.679688 66.839844 26.410156 66.316406 26.203125 C 65.796875 25.996094 65.199219 25.894531 64.519531 25.894531 C 63.933594 25.894531 63.414062 25.992188 62.957031 26.183594 C 62.503906 26.378906 62.101562 26.640625 61.761719 26.972656 C 61.417969 27.296875 61.128906 27.679688 60.890625 28.117188 C 60.652344 28.546875 60.460938 29.007812 60.308594 29.492188 C 60.167969 29.980469 60.0625 30.480469 59.992188 30.992188 C 59.929688 31.507812 59.898438 32.003906 59.898438 32.484375 C 59.898438 33.285156 60 34.050781 60.207031 34.78125 C 60.417969 35.511719 60.746094 36.160156 61.191406 36.722656 C 61.632812 37.277344 62.191406 37.722656 62.871094 38.054688 C 63.558594 38.382812 64.375 38.550781 65.324219 38.550781 C 67.136719 38.550781 68.507812 37.980469 69.4375 36.84375 C 69.539062 36.84375 69.621094 36.871094 69.683594 36.929688 C 69.75 36.984375 69.785156 37.054688 69.785156 37.132812 C 69.484375 37.578125 69.121094 37.960938 68.691406 38.289062 C 68.265625 38.613281 67.816406 38.882812 67.335938 39.09375 C 66.855469 39.300781 66.367188 39.453125 65.875 39.554688 C 65.390625 39.652344 64.9375 39.703125 64.519531 39.703125 C 64.0625 39.703125 63.570312 39.652344 63.042969 39.554688 C 62.515625 39.460938 61.992188 39.300781 61.460938 39.074219 C 60.9375 38.851562 60.433594 38.554688 59.945312 38.195312 C 59.464844 37.824219 59.039062 37.375 58.664062 36.84375 C 58.289062 36.304688 57.992188 35.679688 57.765625 34.960938 C 57.542969 34.242188 57.429688 33.414062 57.429688 32.484375 C 57.429688 31.546875 57.542969 30.71875 57.765625 30 C 57.992188 29.273438 58.289062 28.644531 58.664062 28.105469 C 59.042969 27.570312 59.476562 27.117188 59.964844 26.757812 C 60.457031 26.386719 60.964844 26.089844 61.488281 25.867188 C 62.011719 25.632812 62.535156 25.472656 63.058594 25.378906 C 63.582031 25.277344 64.070312 25.226562 64.519531 25.226562 Z M 71.320312 25.835938 C 72.503906 25.726562 73.554688 25.46875 74.472656 25.070312 C 74.640625 25.136719 74.75 25.222656 74.796875 25.320312 L 74.796875 32.523438 C 75.414062 31.996094 75.996094 31.578125 76.539062 31.265625 C 77.082031 30.953125 77.632812 30.796875 78.195312 30.796875 C 78.898438 30.796875 79.398438 30.996094 79.699219 31.398438 C 80 31.796875 80.15625 32.421875 80.167969 33.273438 L 80.242188 38.035156 C 80.246094 38.195312 80.292969 38.335938 80.382812 38.457031 C 80.476562 38.570312 80.605469 38.65625 80.773438 38.71875 C 80.941406 38.78125 81.082031 38.828125 81.195312 38.859375 C 81.308594 38.882812 81.453125 38.910156 81.636719 38.933594 C 81.667969 39.089844 81.683594 39.175781 81.683594 39.1875 C 81.683594 39.21875 81.667969 39.28125 81.636719 39.375 C 80.832031 39.335938 80.097656 39.320312 79.4375 39.320312 C 78.769531 39.320312 78.035156 39.335938 77.230469 39.375 C 77.203125 39.273438 77.191406 39.199219 77.191406 39.148438 C 77.191406 39.105469 77.203125 39.035156 77.230469 38.933594 C 77.390625 38.910156 77.527344 38.882812 77.632812 38.859375 C 77.746094 38.828125 77.871094 38.78125 78.007812 38.71875 C 78.148438 38.65625 78.253906 38.570312 78.324219 38.457031 C 78.398438 38.335938 78.4375 38.195312 78.4375 38.035156 L 78.457031 33.582031 C 78.457031 32.449219 78.117188 31.882812 77.445312 31.882812 C 76.816406 31.882812 75.933594 32.292969 74.796875 33.113281 C 74.824219 35.710938 74.847656 37.351562 74.875 38.035156 C 74.878906 38.164062 74.917969 38.285156 74.984375 38.390625 C 75.058594 38.492188 75.140625 38.570312 75.226562 38.632812 C 75.316406 38.691406 75.433594 38.742188 75.582031 38.792969 C 75.734375 38.835938 75.847656 38.867188 75.929688 38.886719 C 76.015625 38.898438 76.132812 38.914062 76.277344 38.933594 C 76.3125 39.007812 76.332031 39.085938 76.332031 39.167969 C 76.332031 39.25 76.3125 39.320312 76.277344 39.375 C 75.453125 39.335938 74.65625 39.320312 73.882812 39.320312 C 73.121094 39.320312 72.328125 39.335938 71.507812 39.375 C 71.480469 39.273438 71.46875 39.207031 71.46875 39.167969 C 71.46875 39.136719 71.480469 39.058594 71.507812 38.933594 C 71.710938 38.910156 71.875 38.882812 72 38.859375 C 72.132812 38.828125 72.292969 38.78125 72.488281 38.71875 C 72.6875 38.65625 72.835938 38.570312 72.9375 38.457031 C 73.035156 38.335938 73.089844 38.195312 73.097656 38.035156 C 73.121094 37.414062 73.132812 36.03125 73.132812 33.882812 C 73.132812 32.886719 73.128906 31.535156 73.125 29.820312 C 73.117188 28.109375 73.113281 27.054688 73.113281 26.664062 C 72.757812 26.457031 72.160156 26.328125 71.320312 26.277344 C 71.289062 26.195312 71.273438 26.121094 71.273438 26.054688 C 71.273438 25.992188 71.289062 25.917969 71.320312 25.835938 Z M 82.878906 31.601562 C 84.089844 31.476562 85.144531 31.222656 86.039062 30.835938 C 86.195312 30.898438 86.304688 30.976562 86.367188 31.078125 L 86.367188 32.691406 C 86.597656 32.253906 86.941406 31.828125 87.398438 31.414062 C 87.859375 31.003906 88.339844 30.796875 88.835938 30.796875 C 89.210938 30.796875 89.515625 30.910156 89.746094 31.132812 C 89.980469 31.351562 90.101562 31.65625 90.101562 32.042969 C 90.101562 32.414062 89.992188 32.699219 89.773438 32.90625 C 89.554688 33.113281 89.28125 33.214844 88.949219 33.214844 C 88.644531 33.214844 88.390625 33.117188 88.191406 32.925781 C 88 32.726562 87.894531 32.460938 87.875 32.136719 C 87.613281 32.25 87.3125 32.5 86.976562 32.886719 C 86.644531 33.273438 86.441406 33.660156 86.367188 34.039062 C 86.367188 35.433594 86.394531 36.765625 86.441406 38.035156 C 86.449219 38.195312 86.507812 38.335938 86.621094 38.457031 C 86.734375 38.570312 86.898438 38.65625 87.117188 38.71875 C 87.335938 38.78125 87.515625 38.828125 87.660156 38.859375 C 87.800781 38.882812 87.988281 38.910156 88.21875 38.933594 C 88.257812 39.007812 88.277344 39.085938 88.277344 39.167969 C 88.277344 39.230469 88.257812 39.300781 88.21875 39.375 C 87.285156 39.335938 86.359375 39.320312 85.441406 39.320312 C 84.679688 39.320312 83.890625 39.335938 83.066406 39.375 C 83.042969 39.273438 83.027344 39.207031 83.027344 39.167969 C 83.027344 39.136719 83.042969 39.058594 83.066406 38.933594 C 83.273438 38.910156 83.441406 38.882812 83.570312 38.859375 C 83.703125 38.828125 83.863281 38.78125 84.058594 38.71875 C 84.25 38.65625 84.398438 38.570312 84.496094 38.457031 C 84.597656 38.335938 84.648438 38.195312 84.65625 38.035156 C 84.679688 37.414062 84.695312 36.664062 84.695312 35.785156 C 84.695312 35.492188 84.691406 34.992188 84.683594 34.285156 C 84.679688 33.578125 84.675781 32.960938 84.675781 32.429688 C 84.320312 32.210938 83.722656 32.082031 82.878906 32.042969 C 82.855469 31.945312 82.84375 31.867188 82.84375 31.808594 C 82.84375 31.773438 82.855469 31.703125 82.878906 31.601562 Z M 95.757812 30.796875 C 96.375 30.796875 96.929688 30.90625 97.421875 31.125 C 97.921875 31.34375 98.347656 31.648438 98.695312 32.035156 C 99.042969 32.421875 99.3125 32.886719 99.5 33.429688 C 99.6875 33.96875 99.78125 34.554688 99.78125 35.195312 C 99.78125 36.492188 99.414062 37.550781 98.6875 38.363281 C 97.960938 39.179688 96.988281 39.589844 95.757812 39.589844 C 95.148438 39.589844 94.59375 39.484375 94.09375 39.273438 C 93.601562 39.054688 93.179688 38.75 92.832031 38.363281 C 92.480469 37.96875 92.210938 37.503906 92.015625 36.964844 C 91.832031 36.429688 91.738281 35.835938 91.738281 35.195312 C 91.738281 34.554688 91.832031 33.96875 92.015625 33.429688 C 92.203125 32.886719 92.46875 32.421875 92.8125 32.035156 C 93.160156 31.648438 93.585938 31.34375 94.085938 31.125 C 94.582031 30.90625 95.140625 30.796875 95.757812 30.796875 Z M 95.757812 31.40625 C 95.121094 31.40625 94.613281 31.714844 94.234375 32.335938 C 93.859375 32.953125 93.671875 33.90625 93.671875 35.195312 C 93.671875 36.480469 93.859375 37.433594 94.234375 38.054688 C 94.613281 38.664062 95.121094 38.972656 95.757812 38.972656 C 96.394531 38.972656 96.898438 38.664062 97.273438 38.042969 C 97.652344 37.425781 97.84375 36.476562 97.84375 35.195312 C 97.84375 34.550781 97.792969 33.992188 97.695312 33.515625 C 97.59375 33.039062 97.453125 32.648438 97.273438 32.335938 C 97.09375 32.023438 96.875 31.789062 96.617188 31.640625 C 96.363281 31.484375 96.078125 31.40625 95.757812 31.40625 Z M 106.597656 38.933594 C 106.636719 39.007812 106.65625 39.085938 106.65625 39.167969 C 106.65625 39.230469 106.636719 39.300781 106.597656 39.375 C 105.777344 39.335938 104.976562 39.320312 104.203125 39.320312 C 103.445312 39.320312 102.652344 39.335938 101.828125 39.375 C 101.804688 39.273438 101.792969 39.207031 101.792969 39.167969 C 101.792969 39.136719 101.804688 39.058594 101.828125 38.933594 C 102.035156 38.910156 102.203125 38.882812 102.332031 38.859375 C 102.464844 38.828125 102.625 38.78125 102.820312 38.71875 C 103.011719 38.65625 103.160156 38.570312 103.261719 38.457031 C 103.359375 38.335938 103.414062 38.195312 103.417969 38.035156 C 103.445312 37.414062 103.457031 36.664062 103.457031 35.785156 C 103.457031 35.492188 103.453125 34.992188 103.445312 34.285156 C 103.441406 33.578125 103.4375 32.960938 103.4375 32.429688 C 103.082031 32.210938 102.484375 32.082031 101.640625 32.042969 C 101.617188 31.945312 101.605469 31.867188 101.605469 31.808594 C 101.605469 31.773438 101.617188 31.703125 101.640625 31.601562 C 102.851562 31.476562 103.90625 31.222656 104.804688 30.835938 C 104.957031 30.898438 105.066406 30.976562 105.128906 31.078125 L 105.128906 32.558594 C 105.734375 32.027344 106.316406 31.601562 106.871094 31.285156 C 107.425781 30.960938 107.984375 30.796875 108.554688 30.796875 C 109.265625 30.796875 109.765625 30.996094 110.058594 31.398438 C 110.359375 31.796875 110.515625 32.421875 110.527344 33.273438 L 110.621094 38.035156 C 110.625 38.195312 110.671875 38.335938 110.761719 38.457031 C 110.855469 38.570312 110.984375 38.65625 111.152344 38.71875 C 111.328125 38.78125 111.472656 38.828125 111.585938 38.859375 C 111.695312 38.882812 111.84375 38.910156 112.023438 38.933594 C 112.046875 39.058594 112.0625 39.144531 112.0625 39.1875 C 112.0625 39.238281 112.046875 39.300781 112.023438 39.375 C 111.21875 39.335938 110.476562 39.320312 109.796875 39.320312 C 109.136719 39.320312 108.402344 39.335938 107.601562 39.375 C 107.574219 39.273438 107.5625 39.199219 107.5625 39.148438 C 107.5625 39.105469 107.574219 39.035156 107.601562 38.933594 C 107.761719 38.910156 107.894531 38.882812 108 38.859375 C 108.113281 38.828125 108.238281 38.78125 108.375 38.71875 C 108.519531 38.65625 108.625 38.570312 108.695312 38.457031 C 108.769531 38.335938 108.804688 38.195312 108.804688 38.035156 L 108.824219 33.582031 C 108.824219 32.449219 108.484375 31.882812 107.804688 31.882812 C 107.167969 31.882812 106.277344 32.308594 105.128906 33.160156 C 105.128906 34.976562 105.15625 36.601562 105.207031 38.035156 C 105.210938 38.195312 105.257812 38.335938 105.34375 38.457031 C 105.4375 38.570312 105.570312 38.65625 105.738281 38.71875 C 105.90625 38.78125 106.046875 38.828125 106.160156 38.859375 C 106.269531 38.882812 106.417969 38.910156 106.597656 38.933594 Z M 117.71875 30.796875 C 118.335938 30.796875 118.890625 30.90625 119.382812 31.125 C 119.882812 31.34375 120.308594 31.648438 120.65625 32.035156 C 121.003906 32.421875 121.273438 32.886719 121.460938 33.429688 C 121.648438 33.96875 121.742188 34.554688 121.742188 35.195312 C 121.742188 36.492188 121.375 37.550781 120.648438 38.363281 C 119.925781 39.179688 118.949219 39.589844 117.71875 39.589844 C 117.109375 39.589844 116.554688 39.484375 116.054688 39.273438 C 115.5625 39.054688 115.140625 38.75 114.792969 38.363281 C 114.441406 37.96875 114.171875 37.503906 113.976562 36.964844 C 113.792969 36.429688 113.699219 35.835938 113.699219 35.195312 C 113.699219 34.554688 113.792969 33.96875 113.976562 33.429688 C 114.164062 32.886719 114.429688 32.421875 114.773438 32.035156 C 115.121094 31.648438 115.546875 31.34375 116.046875 31.125 C 116.542969 30.90625 117.101562 30.796875 117.71875 30.796875 Z M 117.71875 31.40625 C 117.082031 31.40625 116.574219 31.714844 116.195312 32.335938 C 115.820312 32.953125 115.632812 33.90625 115.632812 35.195312 C 115.632812 36.480469 115.820312 37.433594 116.195312 38.054688 C 116.574219 38.664062 117.082031 38.972656 117.71875 38.972656 C 118.355469 38.972656 118.859375 38.664062 119.234375 38.042969 C 119.613281 37.425781 119.804688 36.476562 119.804688 35.195312 C 119.804688 34.550781 119.753906 33.992188 119.65625 33.515625 C 119.554688 33.039062 119.414062 32.648438 119.234375 32.335938 C 119.054688 32.023438 118.835938 31.789062 118.582031 31.640625 C 118.324219 31.484375 118.039062 31.40625 117.71875 31.40625 Z M 131.226562 25.226562 C 131.71875 25.226562 132.207031 25.261719 132.695312 25.332031 C 133.1875 25.394531 133.65625 25.472656 134.105469 25.566406 C 134.5625 25.652344 134.992188 25.742188 135.398438 25.828125 C 135.800781 25.914062 136.167969 25.976562 136.492188 26.015625 C 136.417969 26.242188 136.378906 26.636719 136.378906 27.207031 C 136.378906 28.3125 136.542969 29.273438 136.875 30.085938 C 136.835938 30.195312 136.722656 30.265625 136.527344 30.289062 L 136.125 29.429688 C 135.925781 28.996094 135.6875 28.570312 135.40625 28.152344 C 135.125 27.726562 134.789062 27.351562 134.394531 27.019531 C 134.003906 26.679688 133.546875 26.410156 133.019531 26.203125 C 132.503906 25.996094 131.90625 25.894531 131.226562 25.894531 C 130.640625 25.894531 130.117188 25.992188 129.664062 26.183594 C 129.207031 26.378906 128.808594 26.640625 128.464844 26.972656 C 128.125 27.296875 127.832031 27.679688 127.597656 28.117188 C 127.359375 28.546875 127.167969 29.007812 127.015625 29.492188 C 126.875 29.980469 126.765625 30.480469 126.699219 30.992188 C 126.636719 31.507812 126.605469 32.003906 126.605469 32.484375 C 126.605469 33.285156 126.707031 34.050781 126.914062 34.78125 C 127.125 35.511719 127.453125 36.160156 127.894531 36.722656 C 128.339844 37.277344 128.898438 37.722656 129.578125 38.054688 C 130.265625 38.382812 131.082031 38.550781 132.03125 38.550781 C 133.84375 38.550781 135.214844 37.980469 136.144531 36.84375 C 136.246094 36.84375 136.324219 36.871094 136.386719 36.929688 C 136.457031 36.984375 136.492188 37.054688 136.492188 37.132812 C 136.191406 37.578125 135.828125 37.960938 135.398438 38.289062 C 134.972656 38.613281 134.519531 38.882812 134.039062 39.09375 C 133.5625 39.300781 133.074219 39.453125 132.582031 39.554688 C 132.09375 39.652344 131.644531 39.703125 131.226562 39.703125 C 130.769531 39.703125 130.277344 39.652344 129.746094 39.554688 C 129.222656 39.460938 128.695312 39.300781 128.167969 39.074219 C 127.644531 38.851562 127.136719 38.554688 126.652344 38.195312 C 126.171875 37.824219 125.746094 37.375 125.371094 36.84375 C 124.996094 36.304688 124.695312 35.679688 124.472656 34.960938 C 124.25 34.242188 124.136719 33.414062 124.136719 32.484375 C 124.136719 31.546875 124.25 30.71875 124.472656 30 C 124.695312 29.273438 124.996094 28.644531 125.371094 28.105469 C 125.75 27.570312 126.183594 27.117188 126.671875 26.757812 C 127.164062 26.386719 127.671875 26.089844 128.195312 25.867188 C 128.71875 25.632812 129.242188 25.472656 129.765625 25.378906 C 130.289062 25.277344 130.777344 25.226562 131.226562 25.226562 Z M 136.773438 31.003906 C 137.59375 31.039062 138.425781 31.058594 139.269531 31.058594 C 140.035156 31.058594 140.820312 31.039062 141.625 31.003906 C 141.652344 31.101562 141.664062 31.179688 141.664062 31.238281 C 141.664062 31.273438 141.652344 31.34375 141.625 31.445312 C 141.4375 31.457031 141.289062 31.472656 141.175781 31.492188 C 141.066406 31.503906 140.917969 31.527344 140.738281 31.566406 C 140.5625 31.601562 140.429688 31.660156 140.335938 31.734375 C 140.25 31.808594 140.203125 31.898438 140.203125 32.007812 C 140.203125 32.0625 140.230469 32.179688 140.28125 32.351562 L 142.179688 37.085938 L 142.234375 37.085938 L 144.039062 32.351562 C 144.101562 32.195312 144.132812 32.0625 144.132812 31.949219 C 144.132812 31.664062 143.773438 31.492188 143.058594 31.445312 C 143.03125 31.34375 143.019531 31.273438 143.019531 31.238281 C 143.019531 31.179688 143.03125 31.101562 143.058594 31.003906 C 143.785156 31.039062 144.242188 31.058594 144.421875 31.058594 C 144.945312 31.058594 145.609375 31.039062 146.414062 31.003906 C 146.441406 31.078125 146.453125 31.144531 146.453125 31.199219 C 146.453125 31.238281 146.441406 31.320312 146.414062 31.445312 C 145.636719 31.476562 145.128906 31.777344 144.898438 32.351562 L 142.011719 39.28125 L 142.027344 39.28125 L 140.988281 42.007812 C 140.605469 43.023438 140.242188 43.707031 139.90625 44.0625 C 139.574219 44.417969 139.152344 44.597656 138.632812 44.597656 C 138.214844 44.597656 137.867188 44.472656 137.585938 44.222656 C 137.3125 43.972656 137.175781 43.644531 137.175781 43.238281 C 137.175781 42.867188 137.277344 42.578125 137.484375 42.367188 C 137.6875 42.152344 137.945312 42.046875 138.25 42.046875 C 138.53125 42.046875 138.746094 42.132812 138.894531 42.300781 C 139.050781 42.46875 139.128906 42.660156 139.128906 42.871094 C 139.128906 43.171875 138.996094 43.410156 138.726562 43.585938 C 138.757812 43.722656 138.859375 43.789062 139.035156 43.789062 C 139.234375 43.789062 139.421875 43.675781 139.597656 43.445312 C 139.769531 43.21875 140 42.734375 140.28125 41.992188 L 141.316406 39.320312 L 138.398438 32.351562 C 138.332031 32.195312 138.234375 32.0625 138.109375 31.949219 C 137.984375 31.832031 137.832031 31.742188 137.652344 31.679688 C 137.476562 31.609375 137.332031 31.5625 137.210938 31.539062 C 137.09375 31.507812 136.945312 31.476562 136.773438 31.445312 C 136.746094 31.394531 136.734375 31.324219 136.734375 31.238281 C 136.734375 31.144531 136.746094 31.066406 136.773438 31.003906 Z M 154.328125 36.882812 C 154.476562 36.914062 154.597656 36.980469 154.691406 37.085938 C 154.382812 37.925781 153.898438 38.554688 153.242188 38.972656 C 152.589844 39.382812 151.878906 39.589844 151.109375 39.589844 C 150.730469 39.589844 150.359375 39.539062 149.996094 39.441406 C 149.636719 39.347656 149.285156 39.191406 148.941406 38.972656 C 148.605469 38.753906 148.308594 38.484375 148.050781 38.164062 C 147.800781 37.839844 147.601562 37.4375 147.445312 36.957031 C 147.292969 36.46875 147.21875 35.929688 147.21875 35.34375 C 147.21875 33.988281 147.632812 32.890625 148.464844 32.054688 C 149.292969 31.214844 150.328125 30.796875 151.570312 30.796875 C 152.441406 30.796875 153.152344 30.988281 153.699219 31.367188 C 154.257812 31.742188 154.535156 32.226562 154.535156 32.8125 C 154.535156 33.144531 154.425781 33.417969 154.207031 33.636719 C 153.988281 33.855469 153.71875 33.964844 153.402344 33.964844 C 153.066406 33.964844 152.792969 33.867188 152.589844 33.675781 C 152.382812 33.476562 152.28125 33.242188 152.28125 32.980469 C 152.28125 32.507812 152.519531 32.207031 153 32.082031 C 152.957031 31.9375 152.816406 31.789062 152.578125 31.640625 C 152.34375 31.484375 152.003906 31.40625 151.570312 31.40625 C 151.34375 31.40625 151.132812 31.433594 150.933594 31.492188 C 150.734375 31.539062 150.519531 31.648438 150.289062 31.820312 C 150.0625 31.988281 149.871094 32.210938 149.707031 32.484375 C 149.550781 32.757812 149.421875 33.144531 149.316406 33.636719 C 149.207031 34.125 149.15625 34.695312 149.15625 35.34375 C 149.15625 35.78125 149.199219 36.179688 149.285156 36.535156 C 149.378906 36.890625 149.523438 37.210938 149.714844 37.5 C 149.910156 37.789062 150.175781 38.011719 150.511719 38.175781 C 150.847656 38.335938 151.246094 38.417969 151.699219 38.417969 C 151.988281 38.417969 152.257812 38.382812 152.511719 38.304688 C 152.769531 38.226562 152.976562 38.140625 153.128906 38.054688 C 153.292969 37.964844 153.464844 37.835938 153.644531 37.660156 C 153.832031 37.476562 153.957031 37.351562 154.019531 37.273438 C 154.082031 37.195312 154.183594 37.0625 154.328125 36.882812 Z M 155.890625 25.835938 C 157.074219 25.726562 158.125 25.46875 159.042969 25.070312 C 159.210938 25.136719 159.320312 25.222656 159.371094 25.320312 C 159.371094 32.402344 159.394531 36.640625 159.445312 38.035156 C 159.449219 38.164062 159.488281 38.285156 159.554688 38.390625 C 159.632812 38.492188 159.710938 38.570312 159.800781 38.632812 C 159.886719 38.691406 160.003906 38.742188 160.15625 38.792969 C 160.304688 38.835938 160.417969 38.867188 160.5 38.886719 C 160.589844 38.898438 160.703125 38.914062 160.847656 38.933594 C 160.882812 39.007812 160.902344 39.085938 160.902344 39.167969 C 160.902344 39.25 160.882812 39.320312 160.847656 39.375 C 160.023438 39.335938 159.226562 39.320312 158.453125 39.320312 C 157.691406 39.320312 156.898438 39.335938 156.078125 39.375 C 156.050781 39.273438 156.039062 39.207031 156.039062 39.167969 C 156.039062 39.136719 156.050781 39.058594 156.078125 38.933594 C 156.28125 38.910156 156.449219 38.882812 156.574219 38.859375 C 156.703125 38.828125 156.867188 38.78125 157.058594 38.71875 C 157.257812 38.65625 157.40625 38.570312 157.507812 38.457031 C 157.609375 38.335938 157.660156 38.195312 157.667969 38.035156 C 157.691406 37.414062 157.703125 36.03125 157.703125 33.882812 C 157.703125 32.886719 157.699219 31.535156 157.695312 29.820312 C 157.6875 28.109375 157.683594 27.054688 157.683594 26.664062 C 157.332031 26.457031 156.730469 26.328125 155.890625 26.277344 C 155.859375 26.195312 155.84375 26.121094 155.84375 26.054688 C 155.84375 25.992188 155.859375 25.917969 155.890625 25.835938 Z M 169.527344 34.351562 L 164.429688 34.351562 C 164.402344 34.726562 164.390625 35.054688 164.390625 35.34375 C 164.410156 36.273438 164.683594 37.023438 165.207031 37.585938 C 165.730469 38.140625 166.429688 38.417969 167.308594 38.417969 C 167.546875 38.417969 167.769531 38.394531 167.972656 38.34375 C 168.179688 38.289062 168.347656 38.226562 168.480469 38.15625 C 168.617188 38.085938 168.757812 37.988281 168.898438 37.855469 C 169.042969 37.726562 169.144531 37.621094 169.207031 37.546875 C 169.277344 37.464844 169.367188 37.347656 169.480469 37.191406 C 169.59375 37.027344 169.667969 36.925781 169.703125 36.882812 C 169.855469 36.914062 169.976562 36.980469 170.070312 37.085938 C 169.757812 37.925781 169.273438 38.554688 168.621094 38.972656 C 167.964844 39.382812 167.253906 39.589844 166.488281 39.589844 C 166.105469 39.589844 165.734375 39.539062 165.375 39.441406 C 165.019531 39.347656 164.671875 39.191406 164.335938 38.972656 C 164 38.753906 163.707031 38.484375 163.457031 38.164062 C 163.207031 37.839844 163.007812 37.4375 162.859375 36.957031 C 162.707031 36.46875 162.632812 35.929688 162.632812 35.34375 C 162.632812 34.023438 163.035156 32.9375 163.839844 32.082031 C 164.644531 31.226562 165.632812 30.796875 166.804688 30.796875 C 167.324219 30.796875 167.769531 30.871094 168.152344 31.023438 C 168.539062 31.164062 168.835938 31.363281 169.050781 31.613281 C 169.269531 31.863281 169.425781 32.136719 169.527344 32.4375 C 169.632812 32.730469 169.6875 33.046875 169.6875 33.382812 C 169.6875 33.695312 169.632812 34.019531 169.527344 34.351562 Z M 166.582031 31.40625 C 166.148438 31.40625 165.742188 31.597656 165.355469 31.976562 C 164.976562 32.359375 164.699219 32.9375 164.53125 33.710938 L 167.898438 33.710938 C 167.960938 33.476562 167.992188 33.269531 167.992188 33.09375 C 167.992188 32.605469 167.878906 32.203125 167.65625 31.882812 C 167.429688 31.566406 167.074219 31.40625 166.582031 31.40625 Z M 166.582031 31.40625 "/>
</g>
</svg>
