<svg version="1.1" id="Layer_1" xmlns="http://www.w3.org/2000/svg" xmlns:xlink="http://www.w3.org/1999/xlink" x="0px" y="0px"
	 width="100%" viewBox="0 0 508 409" enable-background="new 0 0 508 409" xml:space="preserve">
<path fill="#22232C" opacity="1.000000" stroke="none" 
	d="
M341.000000,410.000000 
	C227.333328,410.000000 114.166664,410.000000 1.000000,410.000000 
	C1.000000,273.666656 1.000000,137.333328 1.000000,1.000000 
	C170.333328,1.000000 339.666656,1.000000 509.000000,1.000000 
	C509.000000,137.333328 509.000000,273.666656 509.000000,410.000000 
	C453.166656,410.000000 397.333344,410.000000 341.000000,410.000000 
M368.712158,277.158478 
	C375.245087,278.262085 377.533386,277.413910 378.217865,273.973389 
	C374.919708,274.240570 371.531311,274.515106 367.329895,274.532104 
	C366.809967,274.702240 366.290009,274.872406 365.770081,275.042572 
	C366.518860,275.637451 367.267639,276.232330 368.712158,277.158478 
M337.572540,260.115356 
	C337.572540,260.115356 337.472504,260.467896 336.808716,260.844482 
	C331.935425,262.214508 332.942963,256.851532 330.541473,255.336380 
	C328.804230,254.240326 327.291260,252.788803 325.678284,251.495789 
	C325.187073,252.021591 324.695892,252.547394 324.204712,253.073196 
	C326.949188,256.714417 329.693665,260.355652 332.617401,264.897980 
	C333.116730,268.806213 333.616028,272.714447 334.838287,276.719025 
	C335.580170,275.484283 336.322052,274.249542 337.262054,272.252808 
	C337.249359,269.795166 337.236694,267.337555 337.619354,264.295746 
	C338.060181,263.468903 338.501038,262.642059 339.237732,261.619263 
	C339.237732,261.619263 339.441406,261.326569 339.970093,260.954071 
	C341.936920,258.267639 343.903748,255.581207 345.870605,252.894791 
	C345.443726,252.559021 345.016846,252.223251 344.589996,251.887482 
	C340.486847,252.742996 339.719482,256.847626 337.572540,260.115356 
M193.805374,158.945389 
	C194.269836,164.860809 194.734299,170.776215 195.212845,177.492798 
	C198.687546,194.458389 207.561142,207.854172 222.175735,218.188843 
	C225.521774,220.144592 228.867798,222.100342 232.213837,224.056107 
	C232.649063,223.292099 233.084305,222.528107 233.519531,221.764099 
	C229.658188,219.592712 225.796844,217.421310 221.435059,214.775528 
	C212.080811,206.360367 204.784592,196.445358 199.673065,184.403900 
	C199.156265,182.898666 198.639450,181.393448 198.112427,179.172714 
	C197.908203,178.755768 197.703995,178.338806 197.448456,177.578644 
	C197.354828,177.004196 197.261215,176.429733 197.242020,175.224899 
	C197.183792,174.807907 197.125549,174.390930 197.151932,173.118835 
	C196.913116,167.906601 196.674316,162.694351 196.751923,156.811890 
	C199.710297,147.929840 202.668671,139.047791 206.061142,129.733612 
	C208.642715,126.494766 211.104324,123.150139 213.840332,120.047485 
	C216.459854,117.076981 219.364456,114.357864 222.143753,111.528259 
	C221.784668,111.221451 221.425598,110.914635 221.066513,110.607826 
	C215.565277,112.444351 208.518188,119.790222 202.173508,130.322006 
	C199.549316,138.253998 196.925125,146.185989 194.181915,154.741608 
	C194.161072,155.164062 194.140244,155.586517 193.923538,156.380447 
	C193.934875,156.927826 193.946228,157.475189 193.805374,158.945389 
M244.933899,218.702576 
	C244.270294,218.449020 243.606689,218.195465 242.300644,217.519714 
	C238.843201,216.129227 235.385773,214.738739 231.349640,212.970520 
	C216.568848,203.308807 207.763672,189.413162 203.439789,171.134659 
	C199.392517,182.376755 215.422256,209.236191 232.194641,216.223083 
	C237.174713,218.036118 242.154770,219.849136 247.817978,222.001495 
	C251.832764,222.753998 255.893173,224.505707 259.775116,222.347794 
	C259.795837,221.693832 259.816589,221.039871 259.837311,220.385910 
	C255.729736,220.222122 251.622147,220.058319 246.951584,219.334564 
	C246.455444,219.180405 245.959320,219.026245 244.933899,218.702576 
M364.133789,255.516785 
	C364.306732,255.011002 364.479706,254.505219 365.134857,253.702347 
	C369.236877,253.702347 373.338867,253.702347 376.942780,253.702347 
	C373.042206,249.930099 368.432800,251.509094 363.118500,253.862061 
	C361.657684,255.461823 360.196899,257.061554 358.292572,259.176971 
	C356.536377,262.963928 356.244263,266.682892 359.094910,270.908966 
	C361.000183,272.592743 362.905426,274.276520 364.810699,275.960266 
	C365.205444,275.545868 365.600220,275.131470 365.994995,274.717072 
	C364.652954,272.546936 363.310913,270.376831 361.822998,267.282990 
	C362.464783,263.507965 363.106537,259.732971 364.133789,255.516785 
M273.635590,254.746994 
	C273.404572,254.585358 273.172699,254.424957 272.502014,253.832397 
	C272.316803,253.743561 272.131622,253.654724 271.715240,253.346313 
	C271.555267,253.205933 271.386230,253.077469 270.612091,252.769836 
	C270.410400,252.716492 270.208679,252.663147 269.434753,252.192688 
	C265.323273,250.400513 261.417267,250.197327 257.412659,254.100082 
	C249.346817,262.377258 251.507721,273.014221 262.688934,277.068329 
	C265.919250,276.545288 269.149567,276.022217 272.844208,275.023651 
	C274.358459,273.156525 275.872711,271.289398 277.726929,269.120392 
	C277.843933,268.408020 277.960907,267.695648 278.249054,266.166992 
	C278.213867,264.784729 278.178680,263.402496 278.266510,261.581818 
	C277.977600,260.906952 277.688690,260.232086 277.196716,258.938507 
	C276.115936,257.634491 275.035126,256.330505 273.635590,254.746994 
M263.535675,99.826736 
	C264.333984,99.820404 265.132324,99.814079 266.747162,99.934959 
	C271.516602,100.844704 276.286011,101.754448 281.643402,103.046425 
	C286.643738,105.532227 291.644104,108.018021 297.099579,110.981628 
	C299.986298,113.443039 303.025635,115.753761 305.680939,118.443581 
	C306.676025,119.451576 306.777710,121.341461 307.286743,122.829254 
	C305.899567,122.279655 304.360443,121.955688 303.151306,121.141647 
	C297.711182,117.479172 292.364655,113.677605 286.615173,109.496353 
	C280.890411,106.575684 275.030396,104.329102 268.686890,104.492577 
	C268.549561,105.060043 268.412231,105.627510 268.274902,106.194977 
	C275.180969,108.760513 282.087036,111.326042 289.518555,114.333923 
	C293.270172,117.345093 297.112091,120.254440 300.706970,123.442360 
	C301.555817,124.195091 301.573486,125.885056 301.973511,127.143875 
	C300.710419,126.789467 299.252106,126.725426 298.218140,126.030220 
	C293.831116,123.080475 289.570068,119.943413 284.803406,116.372505 
	C275.271881,111.175117 265.189514,110.404282 254.910339,111.214989 
	C254.865463,111.632576 254.820602,112.050163 254.775726,112.467751 
	C263.851807,114.332756 272.927856,116.197762 282.544891,118.485680 
	C287.734161,122.184883 292.923431,125.884087 298.992310,130.210327 
	C284.851807,141.723282 271.911774,152.258804 258.573944,163.118225 
	C262.887939,166.972183 266.919434,170.573761 271.324066,174.704971 
	C275.864410,178.824265 280.404755,182.943573 284.945099,187.062866 
	C285.502655,186.446350 286.060242,185.829834 286.617828,185.213318 
	C281.964996,180.200226 277.443268,175.056808 270.914307,171.008102 
	C268.682159,168.412888 266.450043,165.817673 263.808411,162.746368 
	C281.119720,148.717316 298.179230,134.892349 314.935730,121.312920 
	C311.637665,118.747955 309.274384,116.900978 306.901276,115.066742 
	C304.275269,113.037056 301.640259,111.019035 298.611359,108.479164 
	C293.253571,105.822266 287.895813,103.165367 281.921082,100.126144 
	C273.967316,99.050323 266.013550,97.974503 257.320618,96.710411 
	C246.696793,96.556351 237.151016,99.746910 228.218796,104.841133 
	C228.364365,105.344200 228.509918,105.847267 228.655472,106.350334 
	C238.364227,104.068024 248.072983,101.785706 258.669189,99.560310 
	C260.149170,99.566887 261.629120,99.573456 263.535675,99.826736 
M197.853302,275.007904 
	C199.349289,273.144318 200.845291,271.280762 202.674362,269.115082 
	C202.788193,268.408813 202.902008,267.702515 203.198441,266.144531 
	C203.380753,257.964722 200.695938,254.247757 192.164093,251.800537 
	C186.223541,251.215927 181.442062,252.876144 178.479584,258.979462 
	C178.321182,259.652527 178.162796,260.325592 177.776489,261.865936 
	C177.102722,270.185089 179.656342,274.305695 187.701767,277.097778 
	C190.928680,276.556427 194.155579,276.015045 197.853302,275.007904 
M273.932953,211.684509 
	C266.422546,214.309067 258.800415,214.705124 250.424881,212.561111 
	C245.203796,210.426941 239.715164,208.767700 234.839111,206.021011 
	C230.237274,203.428818 226.279861,199.692612 222.038986,196.459610 
	C221.639633,197.086655 221.240280,197.713684 220.840927,198.340714 
	C228.915421,207.207184 238.676483,213.239151 251.657135,215.343643 
	C259.886993,217.137604 267.963654,216.587021 276.620117,213.589340 
	C287.639984,210.275528 297.872009,202.934998 298.312439,198.553665 
	C290.596680,202.801926 282.609772,207.199478 273.932953,211.684509 
M82.047318,253.889252 
	C76.903358,256.764801 75.899422,261.577850 76.714531,266.725281 
	C77.610451,272.382935 81.314957,275.741730 87.703438,277.120605 
	C94.204330,278.291748 96.508598,277.475494 97.339432,274.020142 
	C93.881798,274.224121 90.332657,274.433502 86.183586,274.214142 
	C81.893028,271.245331 79.783401,267.173798 80.123146,261.599731 
	C80.132401,260.917206 80.141655,260.234680 80.713127,259.027252 
	C81.807739,257.676880 82.902359,256.326508 84.804276,254.888840 
	C88.735863,254.605408 92.667458,254.321960 96.599030,254.038406 
	C93.229797,250.723724 88.416519,250.640656 82.047318,253.889252 
M308.819183,277.184296 
	C310.272705,276.352234 311.726227,275.520203 313.179749,274.688141 
	C312.863403,274.151703 312.547058,273.615234 312.230682,273.078766 
	C310.359436,273.907928 308.488159,274.737061 305.933594,275.449310 
	C299.431519,273.982208 296.902222,271.600861 295.995422,266.092621 
	C295.026093,260.204620 296.524567,257.126434 302.784424,253.898560 
	C305.717285,254.114151 308.650146,254.329758 311.583008,254.545349 
	C308.588379,250.674026 304.851898,251.445343 300.414368,252.413025 
	C292.912537,255.643005 289.769562,261.699066 292.032959,268.562775 
	C294.032288,274.625702 300.092133,277.860565 308.819183,277.184296 
M282.183502,223.842728 
	C270.274048,228.437943 258.209167,229.384064 245.869232,225.607910 
	C244.416580,225.163376 242.710327,225.547531 241.121643,225.547531 
	C241.154221,226.175674 241.186798,226.803802 241.219391,227.431946 
	C255.206345,231.549149 269.133789,232.057663 283.727295,225.940079 
	C294.155457,222.594681 302.697174,216.626999 309.119537,207.686249 
	C304.652618,209.924194 300.920898,213.234695 296.790710,215.935989 
	C292.362122,218.832458 287.558685,221.155869 282.183502,223.842728 
M222.432861,261.098694 
	C226.862411,265.776672 231.291946,270.454620 235.985275,275.528687 
	C236.706787,275.343079 237.428299,275.157471 238.320724,274.051392 
	C238.362183,267.053864 238.403641,260.056335 238.507248,252.648666 
	C237.644623,252.760391 236.781998,252.872116 235.798935,253.775131 
	C235.798935,258.382782 235.798935,262.990417 235.798935,267.598053 
	C235.219406,267.738464 234.639877,267.878876 234.060349,268.019287 
	C228.991409,262.787598 223.922470,257.555878 218.853531,252.324188 
	C218.476334,252.503571 218.099121,252.682953 217.721924,252.862335 
	C217.809769,254.573654 217.897598,256.284973 217.787766,258.786804 
	C217.971970,264.671906 216.797165,270.666870 219.216537,276.446686 
	C220.134827,274.807770 220.264709,273.151215 220.485886,271.506927 
	C220.979187,267.839325 221.518097,264.177826 222.432861,261.098694 
M212.937729,146.514893 
	C213.061737,146.260345 213.185760,146.005798 213.762100,145.323273 
	C220.123260,129.993332 231.943512,120.327911 247.254837,114.284935 
	C236.053726,111.319817 216.928864,128.403381 210.049881,146.834793 
	C205.008514,163.408432 209.099945,188.084122 218.421814,191.781845 
	C217.585861,189.718170 217.103394,188.282837 216.442444,186.935043 
	C212.080170,178.039703 209.255005,168.800369 210.088394,158.745834 
	C210.303375,156.152069 210.685364,153.572159 211.189941,150.699814 
	C211.294724,150.493301 211.377304,150.278259 211.906265,149.519974 
	C211.953262,149.052124 212.000244,148.584274 212.203522,147.798981 
	C212.258026,147.571823 212.301056,147.342514 212.937729,146.514893 
M210.027695,136.662003 
	C219.791077,119.940681 234.083221,109.874519 253.363480,107.057396 
	C254.604523,106.876053 255.752747,106.059357 257.626373,105.239822 
	C243.750076,99.255661 215.028152,117.845329 206.478302,137.508972 
	C203.131012,144.710831 200.276154,152.003967 201.080688,159.975540 
	C201.504471,160.059036 201.928238,160.142548 202.352020,160.226044 
	C204.775436,152.525848 207.198853,144.825668 210.027695,136.662003 
M132.316193,272.820007 
	C132.327820,267.000031 132.422699,261.177979 132.275040,255.362045 
	C132.248154,254.303543 131.230316,253.270203 130.669937,252.225250 
	C129.862045,253.231110 128.893585,254.153076 128.307465,255.274796 
	C127.964684,255.930786 128.178238,256.909271 128.234146,257.736450 
	C128.528549,262.092010 126.015007,263.666534 122.159821,263.849487 
	C117.356636,264.077454 116.016953,262.480896 116.013199,256.611328 
	C116.011604,254.123474 116.578384,251.119080 112.034286,252.807144 
	C112.034286,258.574890 111.873741,264.379700 112.117226,270.167572 
	C112.208328,272.333191 113.240570,274.459167 113.843727,276.603241 
	C114.542870,274.540192 115.760933,272.494598 115.831070,270.410400 
	C115.969017,266.311127 116.870438,263.887146 121.758789,263.859192 
	C126.497093,263.832153 128.627182,265.490662 128.277756,270.223938 
	C128.204498,271.216217 128.070007,272.271454 128.318497,273.203064 
	C128.633774,274.385010 129.311172,275.470398 129.832428,276.597412 
	C130.661957,275.610687 131.491501,274.623962 132.316193,272.820007 
M161.275665,262.962891 
	C161.716187,261.553345 162.523956,260.144897 162.528305,258.734009 
	C162.541275,254.516785 159.979111,252.223755 156.011887,251.985733 
	C153.119614,251.812180 148.599487,250.302185 148.154099,254.741898 
	C147.478607,261.475372 148.093811,268.342773 148.277908,275.150085 
	C148.293777,275.736694 149.184341,276.299652 150.759720,278.166809 
	C151.494064,273.581116 152.020279,270.295105 152.546494,267.009094 
	C153.009811,266.816864 153.473129,266.624664 153.936447,266.432465 
	C155.612610,268.485229 157.375885,270.473755 158.946152,272.604584 
	C161.886032,276.593903 161.839508,276.628174 165.205521,276.000092 
	C165.177017,275.672119 165.261932,275.268982 165.102234,275.027924 
	C163.725128,272.949615 161.976639,271.041016 161.011490,268.793030 
	C160.372955,267.305756 160.839447,265.344025 161.275665,262.962891 
M424.158295,273.078186 
	C424.158295,270.510071 424.158295,267.941925 424.158295,265.459259 
	C426.570404,265.016083 428.459045,264.669067 431.099762,264.183868 
	C428.335114,261.592651 424.278687,263.927765 423.614075,259.087463 
	C422.602539,251.720551 429.233826,255.269058 432.728760,252.192932 
	C429.448761,251.992050 427.376312,251.917618 425.314453,251.727982 
	C420.912872,251.323166 419.405396,253.271057 419.710968,257.627045 
	C420.047974,262.431061 419.641174,267.283356 419.829346,272.104034 
	C419.888397,273.616821 420.671753,276.296448 421.383820,276.386597 
	C424.905823,276.832458 428.514984,276.589630 432.093445,276.589630 
	C432.096588,275.998230 432.099731,275.406860 432.102875,274.815460 
	C430.907227,274.687225 429.707642,274.587646 428.517029,274.422974 
	C427.225861,274.244476 425.943054,274.005249 424.158295,273.078186 
M393.029022,259.732635 
	C393.029449,263.064087 392.820068,266.413391 393.101807,269.720856 
	C393.300079,272.048798 393.722809,276.013550 394.816833,276.299896 
	C398.149719,277.172241 401.856415,276.616272 406.566345,276.616272 
	C403.306122,272.542236 397.698456,277.059601 397.189545,271.475708 
	C396.873169,268.004364 397.062988,264.486786 397.029266,260.989960 
	C397.022827,260.323730 397.186035,259.613342 397.008698,258.998993 
	C396.351440,256.721954 395.584534,254.476547 394.858826,252.219254 
	C394.247101,254.419678 393.635345,256.620117 393.029022,259.732635 
M298.888214,205.458633 
	C294.359222,208.509628 290.058899,212.004944 285.236969,214.486694 
	C280.415680,216.968109 275.072632,218.435822 268.884125,220.749512 
	C278.736908,223.873459 303.266266,210.114395 303.513458,201.790588 
	C301.880646,203.060532 300.640411,204.025162 298.888214,205.458633 
z"/>
<path fill="#998D6F" opacity="1.000000" stroke="none" 
	d="
M286.984406,109.926178 
	C292.364655,113.677605 297.711182,117.479172 303.151306,121.141647 
	C304.360443,121.955688 305.899567,122.279655 307.286743,122.829254 
	C306.777710,121.341461 306.676025,119.451576 305.680939,118.443581 
	C303.025635,115.753761 299.986298,113.443039 297.158173,110.539627 
	C297.814240,109.730392 298.411682,109.363167 299.009155,108.995941 
	C301.640259,111.019035 304.275269,113.037056 306.901276,115.066742 
	C309.274384,116.900978 311.637665,118.747955 314.935730,121.312920 
	C298.179230,134.892349 281.119720,148.717316 263.808411,162.746368 
	C266.450043,165.817673 268.682159,168.412888 271.055481,171.731323 
	C271.114716,173.028152 271.032806,173.601746 270.950928,174.175354 
	C266.919434,170.573761 262.887939,166.972183 258.573944,163.118225 
	C271.911774,152.258804 284.851807,141.723282 298.992310,130.210327 
	C292.923431,125.884087 287.734161,122.184883 282.326050,118.082687 
	C283.159149,117.411392 284.211060,117.143082 285.262970,116.874786 
	C289.570068,119.943413 293.831116,123.080475 298.218140,126.030220 
	C299.252106,126.725426 300.710419,126.789467 301.973511,127.143875 
	C301.573486,125.885056 301.555817,124.195091 300.706970,123.442360 
	C297.112091,120.254440 293.270172,117.345093 289.073486,113.790642 
	C288.080414,112.140297 287.532410,111.033241 286.984406,109.926178 
z"/>
<path fill="#26262E" opacity="1.000000" stroke="none" 
	d="
M257.987061,253.673157 
	C261.417267,250.197327 265.323273,250.400513 269.419922,252.533112 
	C269.507904,253.670578 269.316833,254.728622 269.757935,255.225098 
	C275.505585,261.694397 275.838654,266.944275 270.431396,273.916321 
	C267.713654,274.347565 265.369965,274.658447 262.721130,274.803162 
	C256.780182,270.365509 255.328278,264.239014 258.106384,257.411438 
	C258.535706,256.356232 258.049744,254.928574 257.987061,253.673157 
z"/>
<path fill="#90856A" opacity="1.000000" stroke="none" 
	d="
M132.318619,273.228638 
	C131.491501,274.623962 130.661957,275.610687 129.832428,276.597412 
	C129.311172,275.470398 128.633774,274.385010 128.318497,273.203064 
	C128.070007,272.271454 128.204498,271.216217 128.277756,270.223938 
	C128.627182,265.490662 126.497093,263.832153 121.758789,263.859192 
	C116.870438,263.887146 115.969017,266.311127 115.831070,270.410400 
	C115.760933,272.494598 114.542870,274.540192 113.843719,276.603241 
	C113.240570,274.459167 112.208328,272.333191 112.117226,270.167572 
	C111.873741,264.379700 112.034286,258.574890 112.034286,252.807144 
	C116.578384,251.119080 116.011604,254.123474 116.013199,256.611328 
	C116.016953,262.480896 117.356636,264.077454 122.159821,263.849487 
	C126.015007,263.666534 128.528549,262.092010 128.234146,257.736450 
	C128.178238,256.909271 127.964684,255.930786 128.307465,255.274796 
	C128.893585,254.153076 129.862045,253.231110 130.669937,252.225250 
	C131.230316,253.270203 132.248154,254.303543 132.275040,255.362045 
	C132.422699,261.177979 132.327820,267.000031 132.318619,273.228638 
z"/>
<path fill="#8E8369" opacity="1.000000" stroke="none" 
	d="
M161.043442,263.278809 
	C160.839447,265.344025 160.372955,267.305756 161.011490,268.793030 
	C161.976639,271.041016 163.725128,272.949615 165.102234,275.027924 
	C165.261932,275.268982 165.177017,275.672119 165.201492,276.000427 
	C161.839508,276.628174 161.886032,276.593903 158.946152,272.604584 
	C157.375885,270.473755 155.612610,268.485229 153.936447,266.432465 
	C153.473129,266.624664 153.009811,266.816864 152.546494,267.009094 
	C152.020279,270.295105 151.494064,273.581116 150.759720,278.166809 
	C149.184341,276.299652 148.293777,275.736694 148.277908,275.150085 
	C148.093811,268.342773 147.478607,261.475372 148.154099,254.741898 
	C148.599487,250.302185 153.119614,251.812180 156.011887,251.985733 
	C159.979111,252.223755 162.541275,254.516785 162.528305,258.734009 
	C162.523956,260.144897 161.716187,261.553345 161.043442,263.278809 
M153.494217,253.858078 
	C152.889343,255.935364 151.864883,258.004547 151.824646,260.092743 
	C151.797073,261.525055 153.138000,262.983734 153.867188,264.430634 
	C155.329224,263.100037 157.566467,262.016083 158.085266,260.385376 
	C159.042877,257.375458 158.516495,254.320999 153.494217,253.858078 
z"/>
<path fill="#75694A" opacity="1.000000" stroke="none" 
	d="
M206.900055,136.970215 
	C215.028152,117.845329 243.750076,99.255661 257.626373,105.239822 
	C255.752747,106.059357 254.604523,106.876053 253.363480,107.057396 
	C234.083221,109.874519 219.791077,119.940681 209.371033,136.862564 
	C208.109604,137.032150 207.504837,137.001175 206.900055,136.970215 
z"/>
<path fill="#8D8268" opacity="1.000000" stroke="none" 
	d="
M424.407471,273.435333 
	C425.943054,274.005249 427.225861,274.244476 428.517029,274.422974 
	C429.707642,274.587646 430.907227,274.687225 432.102875,274.815460 
	C432.099731,275.406860 432.096588,275.998230 432.093445,276.589630 
	C428.514984,276.589630 424.905823,276.832458 421.383820,276.386597 
	C420.671753,276.296448 419.888397,273.616821 419.829346,272.104034 
	C419.641174,267.283356 420.047974,262.431061 419.710968,257.627045 
	C419.405396,253.271057 420.912872,251.323166 425.314453,251.727982 
	C427.376312,251.917618 429.448761,251.992050 432.728760,252.192932 
	C429.233826,255.269058 422.602539,251.720551 423.614075,259.087463 
	C424.278687,263.927765 428.335114,261.592651 431.099762,264.183868 
	C428.459045,264.669067 426.570404,265.016083 424.158295,265.459259 
	C424.158295,267.941925 424.158295,270.510071 424.407471,273.435333 
z"/>
<path fill="#7C7051" opacity="1.000000" stroke="none" 
	d="
M210.295593,146.103226 
	C216.928864,128.403381 236.053726,111.319817 247.254837,114.284935 
	C231.943512,120.327911 220.123260,129.993332 213.156616,145.575714 
	C211.799301,145.919830 211.047440,146.011520 210.295593,146.103226 
z"/>
<path fill="#998D6F" opacity="1.000000" stroke="none" 
	d="
M231.762451,215.770294 
	C215.422256,209.236191 199.392517,182.376755 203.439789,171.134659 
	C207.763672,189.413162 216.568848,203.308807 231.613922,213.563324 
	C231.839615,214.694168 231.801025,215.232239 231.762451,215.770294 
z"/>
<path fill="#8D8268" opacity="1.000000" stroke="none" 
	d="
M393.026306,259.276581 
	C393.635345,256.620117 394.247101,254.419678 394.858826,252.219254 
	C395.584534,254.476547 396.351440,256.721954 397.008698,258.998993 
	C397.186035,259.613342 397.022827,260.323730 397.029266,260.989960 
	C397.062988,264.486786 396.873169,268.004364 397.189545,271.475708 
	C397.698456,277.059601 403.306122,272.542236 406.566345,276.616272 
	C401.856415,276.616272 398.149719,277.172241 394.816833,276.299896 
	C393.722809,276.013550 393.300079,272.048798 393.101807,269.720856 
	C392.820068,266.413391 393.029449,263.064087 393.026306,259.276581 
z"/>
<path fill="#9E9172" opacity="1.000000" stroke="none" 
	d="
M199.684235,184.930023 
	C204.784592,196.445358 212.080811,206.360367 221.665939,215.421722 
	C221.864517,216.612762 221.832199,217.157623 221.799881,217.702484 
	C207.561142,207.854172 198.687546,194.458389 195.440826,176.752747 
	C196.134964,175.333099 196.601151,174.653519 197.067322,173.973938 
	C197.125549,174.390930 197.183792,174.807907 197.121628,175.807770 
	C197.167419,176.901031 197.333603,177.411453 197.499771,177.921860 
	C197.703995,178.338806 197.908203,178.755768 198.064392,179.872864 
	C198.572327,182.025360 199.128281,183.477692 199.684235,184.930023 
z"/>
<path fill="#988A68" opacity="1.000000" stroke="none" 
	d="
M210.172729,146.469009 
	C211.047440,146.011520 211.799301,145.919830 212.930466,145.789703 
	C213.185760,146.005798 213.061737,146.260345 212.528809,146.955627 
	C212.016464,147.628311 211.992233,147.868332 212.047226,148.116425 
	C212.000244,148.584274 211.953262,149.052124 211.543533,149.909332 
	C211.036224,150.505219 210.972839,150.734283 210.990631,150.985886 
	C210.685364,153.572159 210.303375,156.152069 210.088394,158.745834 
	C209.255005,168.800369 212.080170,178.039703 216.442444,186.935043 
	C217.103394,188.282837 217.585861,189.718170 218.421814,191.781845 
	C209.099945,188.084122 205.008514,163.408432 210.172729,146.469009 
z"/>
<path fill="#6E6242" opacity="1.000000" stroke="none" 
	d="
M299.144165,205.224213 
	C300.640411,204.025162 301.880646,203.060532 303.513458,201.790588 
	C303.266266,210.114395 278.736908,223.873459 268.884125,220.749512 
	C275.072632,218.435822 280.415680,216.968109 285.236969,214.486694 
	C290.058899,212.004944 294.359222,208.509628 299.144165,205.224213 
z"/>
<path fill="#9E9172" opacity="1.000000" stroke="none" 
	d="
M217.985443,257.996307 
	C217.897598,256.284973 217.809769,254.573654 217.721924,252.862335 
	C218.099121,252.682953 218.476334,252.503571 218.853531,252.324188 
	C223.922470,257.555878 228.991409,262.787598 234.060349,268.019287 
	C234.639877,267.878876 235.219406,267.738464 235.798935,267.598053 
	C235.798935,262.990417 235.798935,258.382782 236.280090,253.391891 
	C237.322540,253.025375 237.883820,253.042099 238.445099,253.058823 
	C238.403641,260.056335 238.362183,267.053864 237.830322,274.535248 
	C236.800461,275.056946 236.260971,275.094788 235.721497,275.132599 
	C231.291946,270.454620 226.862411,265.776672 222.050232,260.575012 
	C220.440216,259.366302 219.212830,258.681305 217.985443,257.996307 
z"/>
<path fill="#7C7051" opacity="1.000000" stroke="none" 
	d="
M282.952606,225.978546 
	C269.133789,232.057663 255.206345,231.549149 241.219391,227.431946 
	C241.186798,226.803802 241.154221,226.175674 241.121643,225.547531 
	C242.710327,225.547531 244.416580,225.163376 245.869232,225.607910 
	C258.209167,229.384064 270.274048,228.437943 282.560547,224.160767 
	C282.942596,224.978714 282.947601,225.478638 282.952606,225.978546 
z"/>
<path fill="#90856A" opacity="1.000000" stroke="none" 
	d="
M301.948517,253.863388 
	C296.524567,257.126434 295.026093,260.204620 295.995422,266.092621 
	C296.902222,271.600861 299.431519,273.982208 306.529663,275.766968 
	C307.455475,276.438995 307.785217,276.793365 308.114990,277.147705 
	C300.092133,277.860565 294.032288,274.625702 292.032959,268.562775 
	C289.769562,261.699066 292.912537,255.643005 300.860443,252.548798 
	C301.520508,253.077499 301.734497,253.470444 301.948517,253.863388 
z"/>
<path fill="#8D8268" opacity="1.000000" stroke="none" 
	d="
M250.974396,215.007675 
	C238.676483,213.239151 228.915421,207.207184 220.840927,198.340714 
	C221.240280,197.713684 221.639633,197.086655 222.038986,196.459610 
	C226.279861,199.692612 230.237274,203.428818 234.839111,206.021011 
	C239.715164,208.767700 245.203796,210.426941 250.732803,213.058868 
	C251.018616,214.040298 250.996506,214.523987 250.974396,215.007675 
z"/>
<path fill="#6E6242" opacity="1.000000" stroke="none" 
	d="
M257.781738,99.503387 
	C248.072983,101.785706 238.364227,104.068024 228.655472,106.350334 
	C228.509918,105.847267 228.364365,105.344200 228.218796,104.841133 
	C237.151016,99.746910 246.696793,96.556351 257.401917,96.952080 
	C256.257294,97.597412 255.031357,98.001083 253.249207,98.587906 
	C255.236557,98.989311 256.509155,99.246353 257.781738,99.503387 
z"/>
<path fill="#6E6242" opacity="1.000000" stroke="none" 
	d="
M283.339966,225.959320 
	C282.947601,225.478638 282.942596,224.978714 282.928223,224.104095 
	C287.558685,221.155869 292.362122,218.832458 296.790710,215.935989 
	C300.920898,213.234695 304.652618,209.924194 309.119537,207.686249 
	C302.697174,216.626999 294.155457,222.594681 283.339966,225.959320 
z"/>
<path fill="#90856A" opacity="1.000000" stroke="none" 
	d="
M187.020325,276.782257 
	C179.656342,274.305695 177.102722,270.185089 178.043488,261.165344 
	C178.476486,259.875336 178.642502,259.285858 178.808533,258.696411 
	C181.442062,252.876144 186.223541,251.215927 192.589813,252.225037 
	C193.020782,253.062454 193.026016,253.475372 192.606720,253.891205 
	C187.304199,253.311676 183.666473,254.782700 182.262421,259.914246 
	C180.613693,265.940033 182.696030,271.340942 187.923981,275.170013 
	C187.547928,275.866913 187.284134,276.324585 187.020325,276.782257 
z"/>
<path fill="#8B7F62" opacity="1.000000" stroke="none" 
	d="
M285.033203,116.623642 
	C284.211060,117.143082 283.159149,117.411392 282.055603,117.871231 
	C272.927856,116.197762 263.851807,114.332756 254.775726,112.467751 
	C254.820602,112.050163 254.865463,111.632576 254.910339,111.214989 
	C265.189514,110.404282 275.271881,111.175117 285.033203,116.623642 
z"/>
<path fill="#998D6F" opacity="1.000000" stroke="none" 
	d="
M87.002914,276.791443 
	C81.314957,275.741730 77.610451,272.382935 76.714531,266.725281 
	C75.899422,261.577850 76.903358,256.764801 82.599716,254.040771 
	C83.433739,254.453583 83.715355,254.714859 83.996971,254.976135 
	C82.902359,256.326508 81.807739,257.676880 80.367348,259.521545 
	C80.006531,260.656525 79.991493,261.297272 79.976456,261.937988 
	C79.783401,267.173798 81.893028,271.245331 86.524506,274.695740 
	C86.911255,275.715363 86.957085,276.253387 87.002914,276.791443 
z"/>
<path fill="#75694A" opacity="1.000000" stroke="none" 
	d="
M274.622833,211.597015 
	C282.609772,207.199478 290.596680,202.801926 298.312439,198.553665 
	C297.872009,202.934998 287.639984,210.275528 276.117126,213.393311 
	C275.283691,212.663864 274.953247,212.130447 274.622833,211.597015 
z"/>
<path fill="#90856A" opacity="1.000000" stroke="none" 
	d="
M337.063965,273.014832 
	C336.322052,274.249542 335.580170,275.484283 334.435730,276.241516 
	C333.501495,271.841644 332.969818,267.919281 332.438141,263.996887 
	C329.693665,260.355652 326.949188,256.714417 324.204712,253.073196 
	C324.695892,252.547394 325.187073,252.021591 325.678284,251.495789 
	C327.291260,252.788803 328.804230,254.240326 330.541473,255.336380 
	C332.942963,256.851532 331.935425,262.214508 337.506714,260.994507 
	C338.450409,261.368073 338.696136,261.591644 338.941895,261.815216 
	C338.501038,262.642059 338.060181,263.468903 337.265625,264.878540 
	C336.962555,267.979187 337.013275,270.497009 337.063965,273.014832 
z"/>
<path fill="#75694A" opacity="1.000000" stroke="none" 
	d="
M205.627045,130.165741 
	C202.668671,139.047791 199.710297,147.929840 196.453156,156.835144 
	C195.536591,155.944931 194.918762,155.031448 194.300934,154.117981 
	C196.925125,146.185989 199.549316,138.253998 202.899414,130.129883 
	C204.292557,130.013748 204.959793,130.089737 205.627045,130.165741 
z"/>
<path fill="#6E6242" opacity="1.000000" stroke="none" 
	d="
M205.844086,129.949677 
	C204.959793,130.089737 204.292557,130.013748 203.124390,129.885300 
	C208.518188,119.790222 215.565277,112.444351 221.066513,110.607826 
	C221.425598,110.914635 221.784668,111.221451 222.143753,111.528259 
	C219.364456,114.357864 216.459854,117.076981 213.840332,120.047485 
	C211.104324,123.150139 208.642715,126.494766 205.844086,129.949677 
z"/>
<path fill="#998D6F" opacity="1.000000" stroke="none" 
	d="
M257.699860,253.886627 
	C258.049744,254.928574 258.535706,256.356232 258.106384,257.411438 
	C255.328278,264.239014 256.780182,270.365509 262.607056,275.031433 
	C262.535980,275.863312 262.273804,276.300873 262.011627,276.738403 
	C251.507721,273.014221 249.346817,262.377258 257.699860,253.886627 
z"/>
<path fill="#867A5F" opacity="1.000000" stroke="none" 
	d="
M286.799805,109.711273 
	C287.532410,111.033241 288.080414,112.140297 288.810791,113.569473 
	C282.087036,111.326042 275.180969,108.760513 268.274902,106.194977 
	C268.412231,105.627510 268.549561,105.060043 268.686890,104.492577 
	C275.030396,104.329102 280.890411,106.575684 286.799805,109.711273 
z"/>
<path fill="#7C7051" opacity="1.000000" stroke="none" 
	d="
M206.689178,137.239594 
	C207.504837,137.001175 208.109604,137.032150 209.168320,137.094299 
	C207.198853,144.825668 204.775436,152.525848 202.352020,160.226044 
	C201.928238,160.142548 201.504471,160.059036 201.080688,159.975540 
	C200.276154,152.003967 203.131012,144.710831 206.689178,137.239594 
z"/>
<path fill="#998D6F" opacity="1.000000" stroke="none" 
	d="
M193.031250,253.888306 
	C193.026016,253.475372 193.020782,253.062454 193.009521,252.339859 
	C200.695938,254.247757 203.380753,257.964722 202.955704,266.850464 
	C202.589081,268.176666 202.465195,268.796936 202.341293,269.417175 
	C200.845291,271.280762 199.349289,273.144318 197.335373,274.965576 
	C196.472046,274.527252 196.126633,274.131287 195.971832,273.434784 
	C200.898895,264.895020 199.914749,258.845978 193.031250,253.888306 
z"/>
<path fill="#867A5F" opacity="1.000000" stroke="none" 
	d="
M258.225464,99.531845 
	C256.509155,99.246353 255.236557,98.989311 253.249207,98.587906 
	C255.031357,98.001083 256.257294,97.597412 257.771484,97.046219 
	C266.013550,97.974503 273.967316,99.050323 282.034668,100.580490 
	C281.783997,101.577957 281.419708,102.121071 281.055450,102.664192 
	C276.286011,101.754448 271.516602,100.844704 266.120331,99.762413 
	C264.698700,99.586586 263.903900,99.583305 263.109100,99.580025 
	C261.629120,99.573456 260.149170,99.566887 258.225464,99.531845 
z"/>
<path fill="#867A5F" opacity="1.000000" stroke="none" 
	d="
M271.137512,174.440155 
	C271.032806,173.601746 271.114716,173.028152 271.217773,172.020233 
	C277.443268,175.056808 281.964996,180.200226 286.617828,185.213318 
	C286.060242,185.829834 285.502655,186.446350 284.945099,187.062866 
	C280.404755,182.943573 275.864410,178.824265 271.137512,174.440155 
z"/>
<path fill="#9E9172" opacity="1.000000" stroke="none" 
	d="
M270.805420,273.795959 
	C275.838654,266.944275 275.505585,261.694397 269.757935,255.225098 
	C269.316833,254.728622 269.507904,253.670578 269.706055,252.741669 
	C270.208679,252.663147 270.410400,252.716492 270.937897,253.062958 
	C271.263702,253.356079 271.552795,253.631042 271.552795,253.631042 
	C271.552795,253.631042 271.946442,253.565887 271.946442,253.565887 
	C272.131622,253.654724 272.316803,253.743561 272.829895,254.243805 
	C273.370392,254.892441 273.635925,255.016190 273.954346,255.026489 
	C275.035126,256.330505 276.115936,257.634491 277.316589,259.574097 
	C277.672119,260.813202 277.907806,261.416718 278.143494,262.020233 
	C278.178680,263.402496 278.213867,264.784729 278.004700,266.855103 
	C277.635864,268.169586 277.511414,268.795898 277.386963,269.422241 
	C275.872711,271.289398 274.358459,273.156525 272.334106,274.991943 
	C271.484497,274.572144 271.144958,274.184052 270.805420,273.795959 
z"/>
<path fill="#8E8369" opacity="1.000000" stroke="none" 
	d="
M281.349426,102.855309 
	C281.419708,102.121071 281.783997,101.577957 282.343140,100.771652 
	C287.895813,103.165367 293.253571,105.822266 298.810242,108.737556 
	C298.411682,109.363167 297.814240,109.730392 296.930603,110.300720 
	C291.644104,108.018021 286.643738,105.532227 281.349426,102.855309 
z"/>
<path fill="#8D8268" opacity="1.000000" stroke="none" 
	d="
M217.886612,258.391541 
	C219.212830,258.681305 220.440216,259.366302 221.853012,260.282593 
	C221.518097,264.177826 220.979187,267.839325 220.485886,271.506927 
	C220.264709,273.151215 220.134827,274.807770 219.216537,276.446686 
	C216.797165,270.666870 217.971970,264.671906 217.886612,258.391541 
z"/>
<path fill="#867A5F" opacity="1.000000" stroke="none" 
	d="
M274.277893,211.640762 
	C274.953247,212.130447 275.283691,212.663864 275.752808,213.478668 
	C267.963654,216.587021 259.886993,217.137604 251.315765,215.175659 
	C250.996506,214.523987 251.018616,214.040298 251.052628,213.193619 
	C258.800415,214.705124 266.422546,214.309067 274.277893,211.640762 
z"/>
<path fill="#998D6F" opacity="1.000000" stroke="none" 
	d="
M364.652649,253.999420 
	C364.479706,254.505219 364.306732,255.011002 363.641327,255.938095 
	C360.111359,260.045135 359.855194,264.007904 361.968872,268.206696 
	C363.310913,270.376831 364.652954,272.546936 365.994995,274.717072 
	C365.600220,275.131470 365.205444,275.545868 364.810699,275.960266 
	C362.905426,274.276520 361.000183,272.592743 358.915771,270.174500 
	C358.736450,265.847137 358.736267,262.254242 358.736084,258.661316 
	C360.196899,257.061554 361.657684,255.461823 363.666077,253.916855 
	C364.213623,253.971649 364.652679,253.999435 364.652649,253.999420 
z"/>
<path fill="#7C7051" opacity="1.000000" stroke="none" 
	d="
M247.514557,219.894531 
	C251.622147,220.058319 255.729736,220.222122 259.837311,220.385910 
	C259.816589,221.039871 259.795837,221.693832 259.775116,222.347794 
	C255.893173,224.505707 251.832764,222.753998 247.552277,221.713715 
	C247.362579,220.915466 247.438568,220.404999 247.514557,219.894531 
z"/>
<path fill="#8B7F62" opacity="1.000000" stroke="none" 
	d="
M247.233063,219.614548 
	C247.438568,220.404999 247.362579,220.915466 247.210709,221.544052 
	C242.154770,219.849136 237.174713,218.036118 231.978546,215.996689 
	C231.801025,215.232239 231.839615,214.694168 231.903259,213.752167 
	C235.385773,214.738739 238.843201,216.129227 242.818542,217.917969 
	C244.045349,218.501495 244.754257,218.686783 245.463181,218.872086 
	C245.959320,219.026245 246.455444,219.180405 247.233063,219.614548 
z"/>
<path fill="#8B7F62" opacity="1.000000" stroke="none" 
	d="
M221.987808,217.945663 
	C221.832199,217.157623 221.864517,216.612762 221.916153,215.658905 
	C225.796844,217.421310 229.658188,219.592712 233.519531,221.764099 
	C233.084305,222.528107 232.649063,223.292099 232.213837,224.056107 
	C228.867798,222.100342 225.521774,220.144592 221.987808,217.945663 
z"/>
<path fill="#8B7F62" opacity="1.000000" stroke="none" 
	d="
M84.400620,254.932495 
	C83.715355,254.714859 83.433739,254.453583 82.941650,253.995697 
	C88.416519,250.640656 93.229797,250.723724 96.599037,254.038452 
	C92.667458,254.321960 88.735863,254.605408 84.400620,254.932495 
z"/>
<path fill="#8B7F62" opacity="1.000000" stroke="none" 
	d="
M194.241425,154.429794 
	C194.918762,155.031448 195.536591,155.944931 196.294952,157.170258 
	C196.674316,162.694351 196.913116,167.906601 197.109634,173.546387 
	C196.601151,174.653519 196.134964,175.333099 195.433777,176.352158 
	C194.734299,170.776215 194.269836,164.860809 193.974854,158.296448 
	C194.136032,157.101318 194.127716,156.555145 194.119415,156.008972 
	C194.140244,155.586517 194.161072,155.164062 194.241425,154.429794 
z"/>
<path fill="#766D5B" opacity="1.000000" stroke="none" 
	d="
M87.353180,276.956024 
	C86.957085,276.253387 86.911255,275.715363 86.824463,274.910095 
	C90.332657,274.433502 93.881798,274.224121 97.339432,274.020142 
	C96.508598,277.475494 94.204330,278.291748 87.353180,276.956024 
z"/>
<path fill="#766D5B" opacity="1.000000" stroke="none" 
	d="
M337.790436,259.820740 
	C339.719482,256.847626 340.486847,252.742996 344.589996,251.887482 
	C345.016846,252.223251 345.443726,252.559021 345.870605,252.894791 
	C343.903748,255.581207 341.936920,258.267639 339.439850,260.878296 
	C338.536560,260.475250 338.163483,260.147980 337.790436,259.820740 
z"/>
<path fill="#766D5B" opacity="1.000000" stroke="none" 
	d="
M368.142883,274.789612 
	C371.531311,274.515106 374.919708,274.240570 378.217865,273.973389 
	C377.533386,277.413910 375.245087,278.262085 368.396606,276.653809 
	C368.101685,275.695984 368.122284,275.242828 368.142883,274.789612 
z"/>
<path fill="#766D5B" opacity="1.000000" stroke="none" 
	d="
M364.893768,253.850891 
	C364.652679,253.999435 364.213623,253.971649 364.006775,253.896805 
	C368.432800,251.509094 373.042206,249.930099 376.942780,253.702347 
	C373.338867,253.702347 369.236877,253.702347 364.893768,253.850891 
z"/>
<path fill="#8B7F62" opacity="1.000000" stroke="none" 
	d="
M302.366455,253.880981 
	C301.734497,253.470444 301.520508,253.077499 301.204956,252.485275 
	C304.851898,251.445343 308.588379,250.674026 311.583008,254.545349 
	C308.650146,254.329758 305.717285,254.114151 302.366455,253.880981 
z"/>
<path fill="#766D5B" opacity="1.000000" stroke="none" 
	d="
M195.781219,273.735291 
	C196.126633,274.131287 196.472046,274.527252 197.099976,275.198486 
	C194.155579,276.015045 190.928680,276.556427 187.361053,276.940002 
	C187.284134,276.324585 187.547928,275.866913 188.327728,275.178833 
	C191.156235,274.544037 193.468719,274.139679 195.781219,273.735291 
z"/>
<path fill="#766D5B" opacity="1.000000" stroke="none" 
	d="
M270.431396,273.916321 
	C271.144958,274.184052 271.484497,274.572144 272.101959,275.229675 
	C269.149567,276.022217 265.919250,276.545288 262.350281,276.903381 
	C262.273804,276.300873 262.535980,275.863312 262.912231,275.197540 
	C265.369965,274.658447 267.713654,274.347565 270.431396,273.916321 
z"/>
<path fill="#766D5B" opacity="1.000000" stroke="none" 
	d="
M332.527771,264.447449 
	C332.969818,267.919281 333.501495,271.841644 334.074280,276.193359 
	C333.616028,272.714447 333.116730,268.806213 332.527771,264.447449 
z"/>
<path fill="#766D5B" opacity="1.000000" stroke="none" 
	d="
M308.467102,277.166016 
	C307.785217,276.793365 307.455475,276.438995 306.871307,275.825409 
	C308.488159,274.737061 310.359436,273.907928 312.230682,273.078766 
	C312.547058,273.615234 312.863403,274.151703 313.179749,274.688141 
	C311.726227,275.520203 310.272705,276.352234 308.467102,277.166016 
z"/>
<path fill="#766D5B" opacity="1.000000" stroke="none" 
	d="
M361.895935,267.744843 
	C359.855194,264.007904 360.111359,260.045135 363.448578,256.158691 
	C363.106537,259.732971 362.464783,263.507965 361.895935,267.744843 
z"/>
<path fill="#766D5B" opacity="1.000000" stroke="none" 
	d="
M358.514343,258.919128 
	C358.736267,262.254242 358.736450,265.847137 358.772217,269.854614 
	C356.244263,266.682892 356.536377,262.963928 358.514343,258.919128 
z"/>
<path fill="#766D5B" opacity="1.000000" stroke="none" 
	d="
M337.163025,272.633820 
	C337.013275,270.497009 336.962555,267.979187 337.067932,265.170654 
	C337.236694,267.337555 337.249359,269.795166 337.163025,272.633820 
z"/>
<path fill="#75694A" opacity="1.000000" stroke="none" 
	d="
M199.678650,184.666962 
	C199.128281,183.477692 198.572327,182.025360 198.069519,180.230621 
	C198.639450,181.393448 199.156265,182.898666 199.678650,184.666962 
z"/>
<path fill="#90856A" opacity="1.000000" stroke="none" 
	d="
M238.476166,252.853745 
	C237.883820,253.042099 237.322540,253.025375 236.340317,252.996246 
	C236.781998,252.872116 237.644623,252.760391 238.476166,252.853745 
z"/>
<path fill="#8B7F62" opacity="1.000000" stroke="none" 
	d="
M80.049805,261.768860 
	C79.991493,261.297272 80.006531,260.656525 80.086243,259.783997 
	C80.141655,260.234680 80.132401,260.917206 80.049805,261.768860 
z"/>
<path fill="#6E6242" opacity="1.000000" stroke="none" 
	d="
M263.322388,99.703384 
	C263.903900,99.583305 264.698700,99.586586 265.712067,99.698807 
	C265.132324,99.814079 264.333984,99.820404 263.322388,99.703384 
z"/>
<path fill="#90856A" opacity="1.000000" stroke="none" 
	d="
M235.853394,275.330627 
	C236.260971,275.094788 236.800461,275.056946 237.744873,274.995483 
	C237.428299,275.157471 236.706787,275.343079 235.853394,275.330627 
z"/>
<path fill="#75694A" opacity="1.000000" stroke="none" 
	d="
M197.474121,177.750244 
	C197.333603,177.411453 197.167419,176.901031 197.084412,176.122955 
	C197.261215,176.429733 197.354828,177.004196 197.474121,177.750244 
z"/>
<path fill="#998D6F" opacity="1.000000" stroke="none" 
	d="
M367.736389,274.660889 
	C368.122284,275.242828 368.101685,275.695984 368.048767,276.488159 
	C367.267639,276.232330 366.518860,275.637451 365.770081,275.042572 
	C366.290009,274.872406 366.809967,274.702240 367.736389,274.660889 
z"/>
<path fill="#766D5B" opacity="1.000000" stroke="none" 
	d="
M277.556946,269.271301 
	C277.511414,268.795898 277.635864,268.169586 277.919098,267.263245 
	C277.960907,267.695648 277.843933,268.408020 277.556946,269.271301 
z"/>
<path fill="#766D5B" opacity="1.000000" stroke="none" 
	d="
M202.507828,269.266113 
	C202.465195,268.796936 202.589081,268.176666 202.864410,267.276337 
	C202.902008,267.702515 202.788193,268.408813 202.507828,269.266113 
z"/>
<path fill="#766D5B" opacity="1.000000" stroke="none" 
	d="
M278.205017,261.801025 
	C277.907806,261.416718 277.672119,260.813202 277.418091,259.883484 
	C277.688690,260.232086 277.977600,260.906952 278.205017,261.801025 
z"/>
<path fill="#766D5B" opacity="1.000000" stroke="none" 
	d="
M178.644043,258.837952 
	C178.642502,259.285858 178.476486,259.875336 178.157440,260.731720 
	C178.162796,260.325592 178.321182,259.652527 178.644043,258.837952 
z"/>
<path fill="#7C7051" opacity="1.000000" stroke="none" 
	d="
M245.198547,218.787323 
	C244.754257,218.686783 244.045349,218.501495 243.139771,218.129059 
	C243.606689,218.195465 244.270294,218.449020 245.198547,218.787323 
z"/>
<path fill="#75694A" opacity="1.000000" stroke="none" 
	d="
M194.021469,156.194702 
	C194.127716,156.555145 194.136032,157.101318 194.050949,157.835022 
	C193.946228,157.475189 193.934875,156.927826 194.021469,156.194702 
z"/>
<path fill="#90856A" opacity="1.000000" stroke="none" 
	d="
M337.681488,259.968048 
	C338.163483,260.147980 338.536560,260.475250 339.175507,261.064514 
	C339.441406,261.326569 339.237732,261.619263 339.089783,261.717224 
	C338.696136,261.591644 338.450409,261.368073 337.838623,260.806213 
	C337.472504,260.467896 337.572540,260.115356 337.681488,259.968048 
z"/>
<path fill="#766D5B" opacity="1.000000" stroke="none" 
	d="
M273.794983,254.886749 
	C273.635925,255.016190 273.370392,254.892441 273.048889,254.460480 
	C273.172699,254.424957 273.404572,254.585358 273.794983,254.886749 
z"/>
<path fill="#26262E" opacity="1.000000" stroke="none" 
	d="
M271.830841,253.456100 
	C271.946442,253.565887 271.552795,253.631042 271.552795,253.631042 
	C271.552795,253.631042 271.263702,253.356079 271.235901,253.158508 
	C271.386230,253.077469 271.555267,253.205933 271.830841,253.456100 
z"/>
<path fill="#7C7051" opacity="1.000000" stroke="none" 
	d="
M212.125366,147.957703 
	C211.992233,147.868332 212.016464,147.628311 212.226257,147.253693 
	C212.301056,147.342514 212.258026,147.571823 212.125366,147.957703 
z"/>
<path fill="#7C7051" opacity="1.000000" stroke="none" 
	d="
M211.090286,150.842850 
	C210.972839,150.734283 211.036224,150.505219 211.309235,150.176697 
	C211.377304,150.278259 211.294724,150.493301 211.090286,150.842850 
z"/>
<path fill="#2F2F33" opacity="1.000000" stroke="none" 
	d="
M153.931793,253.801331 
	C158.516495,254.320999 159.042877,257.375458 158.085266,260.385376 
	C157.566467,262.016083 155.329224,263.100037 153.867188,264.430634 
	C153.138000,262.983734 151.797073,261.525055 151.824646,260.092743 
	C151.864883,258.004547 152.889343,255.935364 153.931793,253.801331 
z"/>
<path fill="#26262E" opacity="1.000000" stroke="none" 
	d="
M195.971832,273.434784 
	C193.468719,274.139679 191.156235,274.544037 188.439972,274.939606 
	C182.696030,271.340942 180.613693,265.940033 182.262421,259.914246 
	C183.666473,254.782700 187.304199,253.311676 192.606705,253.891205 
	C199.914749,258.845978 200.898895,264.895020 195.971832,273.434784 
z"/>
</svg>