<svg width="575" height="433" viewBox="0 0 575 433" fill="none" xmlns="http://www.w3.org/2000/svg">
<path fill-rule="evenodd" clip-rule="evenodd" d="M221.683 26.7118C228.258 22.595 235.174 18.9798 242.376 15.9126C270.875 3.77596 302.449 0.823631 332.704 7.46629C361.656 13.8227 388.023 28.6625 408.462 50.0467L298.068 150.03L294.3 153.442L298.503 156.302L365.004 201.553L367.773 198.598L304.156 155.31L300.753 152.995L303.803 150.232L411.187 52.9754L414.151 50.2902C413.255 49.3009 412.347 48.3242 411.427 47.3605C390.43 25.3605 363.326 10.0941 333.562 3.55934C302.494 -3.26165 270.073 -0.230058 240.809 12.2324C233.232 15.4591 225.964 19.2764 219.065 23.633L221.683 26.7118ZM210.741 29.2807C194.6 41.0246 180.821 55.881 170.28 73.0937C159.263 91.084 152.146 111.055 149.244 131.723L153.372 131.125C156.298 111.408 163.167 92.3675 173.691 75.1827C184.01 58.3328 197.515 43.8015 213.34 32.3369L210.741 29.2807ZM148.125 163.579C147.624 156.358 147.638 149.143 148.155 141.985L152.21 141.398C151.644 148.655 151.607 155.976 152.115 163.302C154.258 194.204 165.979 223.67 185.648 247.6C205.316 271.53 231.954 288.736 261.856 296.823C279.097 301.485 296.929 302.983 314.508 301.353L316.332 305.194C297.812 307.09 278.992 305.601 260.811 300.684C230.107 292.38 202.754 274.713 182.557 250.14C162.361 225.567 150.325 195.31 148.125 163.579ZM326.726 303.769C335.934 302.183 345.023 299.749 353.874 296.472C382.451 285.891 407.188 267.03 424.948 242.342C425.726 241.261 426.491 240.168 427.242 239.065L427.242 239.064L424.384 237.12L421.616 240.074L421.64 240.091C404.349 264.092 380.282 282.429 352.485 292.72C343.512 296.043 334.287 298.476 324.942 300.013L326.726 303.769Z" fill="#A9927D"/>
<path fill-rule="evenodd" clip-rule="evenodd" d="M330.295 15.2845C315.128 11.9546 299.611 11.1727 284.362 12.8811L283.439 8.96025C299.274 7.13304 315.397 7.91838 331.152 11.3775C360.595 17.8416 387.29 33.3215 407.525 55.6635L404.561 58.3487C384.884 36.623 358.925 21.5703 330.295 15.2845ZM243.252 19.5968C253.031 15.4323 263.182 12.379 273.518 10.4545L274.435 14.3526C264.321 16.2219 254.387 19.2025 244.819 23.277C217.851 34.7616 195.132 54.366 179.824 79.363C164.516 104.36 157.379 133.507 159.407 162.748C161.435 191.99 172.526 219.873 191.138 242.518C209.75 265.162 234.957 281.444 263.252 289.096C263.56 289.179 263.867 289.261 264.175 289.342L262.665 293.08C262.512 293.039 262.36 292.998 262.208 292.957C233.11 285.088 207.188 268.345 188.048 245.057C168.908 221.77 157.502 193.096 155.417 163.025C153.331 132.954 160.67 102.98 176.413 77.274C192.155 51.5678 215.518 31.4072 243.252 19.5968ZM272.534 295.348C298.518 300.373 325.456 298.201 350.402 288.965C378.67 278.499 402.973 259.483 419.931 234.562L416.624 232.311C400.134 256.545 376.501 275.037 349.013 285.214C325.001 294.104 299.091 296.264 274.061 291.568L272.534 295.348Z" fill="#A9927D"/>
<path fill-rule="evenodd" clip-rule="evenodd" d="M358.682 34.0477C373.399 41.3873 386.712 51.4373 397.879 63.767L400.844 61.0818C389.419 48.4683 375.815 38.1709 360.779 30.6242L358.682 34.0477ZM351.615 26.4395C344.245 23.3961 336.587 20.988 328.722 19.2612C300.919 13.1569 271.904 15.8699 245.715 27.0229C219.525 38.1758 197.463 57.2141 182.597 81.4893C176.423 91.5709 171.618 102.348 168.25 113.537L172.147 114.47C175.413 103.686 180.055 93.2993 186.008 83.5783C200.44 60.0123 221.857 41.5302 247.282 30.7031C272.706 19.8759 300.873 17.2422 327.864 23.1681C335.29 24.7984 342.525 27.0544 349.499 29.8947L351.615 26.4395ZM162.77 162.467C161.852 149.23 162.867 136.012 165.719 123.214L169.61 124.145C166.852 136.551 165.87 149.361 166.76 162.19C168.652 189.477 178.916 215.509 196.141 236.74L193.608 239.962C193.6 239.952 193.592 239.942 193.584 239.932C175.51 217.942 164.739 190.864 162.77 162.467ZM200.35 247.567C217.567 265.592 239.429 278.625 263.616 285.166C291.094 292.597 320.205 291.279 346.9 281.396C373.594 271.512 396.545 253.555 412.559 230.021L409.252 227.771C393.706 250.617 371.426 268.05 345.511 277.645C319.596 287.239 291.335 288.519 264.66 281.304C240.995 274.904 219.622 262.102 202.848 244.389L200.35 247.567Z" fill="#A9927D"/>
<path d="M41.9688 333.536C44.4375 333.536 46.8906 333.708 49.3281 334.052C51.7969 334.365 54.1562 334.755 56.4062 335.224C58.6875 335.661 60.8438 336.099 62.875 336.536C64.9062 336.974 66.7344 337.286 68.3594 337.474C67.9844 338.599 67.7969 340.583 67.7969 343.427C67.7969 348.958 68.625 353.755 70.2812 357.818C70.0938 358.38 69.5156 358.724 68.5469 358.849L66.5312 354.536C65.5312 352.38 64.3281 350.255 62.9219 348.161C61.5156 346.036 59.8281 344.146 57.8594 342.49C55.8906 340.802 53.5938 339.443 50.9688 338.411C48.375 337.38 45.375 336.865 41.9688 336.865C39.0312 336.865 36.4219 337.349 34.1406 338.318C31.8594 339.286 29.8594 340.599 28.1406 342.255C26.4219 343.88 24.9688 345.786 23.7812 347.974C22.5938 350.13 21.625 352.427 20.875 354.865C20.1562 357.302 19.625 359.802 19.2812 362.365C18.9688 364.927 18.8125 367.411 18.8125 369.818C18.8125 373.818 19.3281 377.646 20.3594 381.302C21.4219 384.958 23.0625 388.193 25.2812 391.005C27.5 393.786 30.3125 396.005 33.7188 397.661C37.1562 399.318 41.25 400.146 46 400.146C55.0938 400.146 61.9688 397.302 66.625 391.615C67.125 391.615 67.5312 391.755 67.8438 392.036C68.1875 392.318 68.3594 392.661 68.3594 393.068C66.8594 395.286 65.0312 397.208 62.875 398.833C60.75 400.458 58.4844 401.802 56.0781 402.865C53.6719 403.896 51.2344 404.661 48.7656 405.161C46.3281 405.661 44.0625 405.911 41.9688 405.911C39.6875 405.911 37.2188 405.661 34.5625 405.161C31.9375 404.693 29.2969 403.896 26.6406 402.771C24.0156 401.646 21.4844 400.177 19.0469 398.365C16.6406 396.521 14.5 394.271 12.625 391.615C10.75 388.927 9.25 385.786 8.125 382.193C7 378.599 6.4375 374.474 6.4375 369.818C6.4375 365.13 7 360.99 8.125 357.396C9.25 353.771 10.75 350.615 12.625 347.927C14.5312 345.24 16.7031 342.99 19.1406 341.177C21.6094 339.333 24.1562 337.849 26.7812 336.724C29.4062 335.568 32.0312 334.755 34.6562 334.286C37.2812 333.786 39.7188 333.536 41.9688 333.536ZM76.0469 336.583C81.9844 336.021 87.25 334.74 91.8438 332.74C92.6875 333.083 93.2344 333.505 93.4844 334.005V370.005C96.5781 367.38 99.4844 365.286 102.203 363.724C104.922 362.161 107.688 361.38 110.5 361.38C114.031 361.38 116.547 362.38 118.047 364.38C119.547 366.38 120.328 369.505 120.391 373.755L120.766 397.568C120.797 398.38 121.031 399.083 121.469 399.677C121.938 400.24 122.594 400.677 123.438 400.99C124.281 401.302 124.984 401.536 125.547 401.693C126.109 401.818 126.844 401.943 127.75 402.068C127.906 402.849 127.984 403.271 127.984 403.333C127.984 403.49 127.906 403.802 127.75 404.271C123.719 404.083 120.047 403.99 116.734 403.99C113.391 403.99 109.703 404.083 105.672 404.271C105.547 403.771 105.484 403.396 105.484 403.146C105.484 402.927 105.547 402.568 105.672 402.068C106.484 401.943 107.156 401.818 107.688 401.693C108.25 401.536 108.875 401.302 109.562 400.99C110.281 400.677 110.812 400.24 111.156 399.677C111.531 399.083 111.719 398.38 111.719 397.568L111.812 375.302C111.812 369.646 110.125 366.818 106.75 366.818C103.594 366.818 99.1719 368.865 93.4844 372.958C93.6094 385.958 93.7344 394.161 93.8594 397.568C93.8906 398.224 94.0781 398.818 94.4219 399.349C94.7969 399.849 95.2031 400.255 95.6406 400.568C96.0781 400.849 96.6719 401.115 97.4219 401.365C98.1719 401.583 98.75 401.74 99.1562 401.833C99.5938 401.896 100.172 401.974 100.891 402.068C101.078 402.443 101.172 402.833 101.172 403.24C101.172 403.646 101.078 403.99 100.891 404.271C96.7656 404.083 92.7656 403.99 88.8906 403.99C85.0781 403.99 81.1094 404.083 76.9844 404.271C76.8594 403.771 76.7969 403.427 76.7969 403.24C76.7969 403.083 76.8594 402.693 76.9844 402.068C78.0156 401.943 78.8438 401.818 79.4688 401.693C80.125 401.536 80.9375 401.302 81.9062 400.99C82.9062 400.677 83.6562 400.24 84.1562 399.677C84.6562 399.083 84.9219 398.38 84.9531 397.568C85.0781 394.474 85.1406 387.552 85.1406 376.802C85.1406 371.833 85.125 365.068 85.0938 356.505C85.0625 347.943 85.0469 342.677 85.0469 340.708C83.2656 339.677 80.2656 339.036 76.0469 338.786C75.8906 338.38 75.8125 338.005 75.8125 337.661C75.8125 337.349 75.8906 336.99 76.0469 336.583ZM133.984 365.411C140.047 364.786 145.328 363.505 149.828 361.568C150.609 361.88 151.156 362.286 151.469 362.786V370.849C152.625 368.661 154.344 366.536 156.625 364.474C158.938 362.411 161.344 361.38 163.844 361.38C165.719 361.38 167.234 361.943 168.391 363.068C169.578 364.161 170.172 365.677 170.172 367.615C170.172 369.458 169.625 370.896 168.531 371.927C167.438 372.958 166.062 373.474 164.406 373.474C162.875 373.474 161.609 372.99 160.609 372.021C159.641 371.021 159.109 369.708 159.016 368.083C157.703 368.646 156.203 369.896 154.516 371.833C152.859 373.771 151.844 375.693 151.469 377.599C151.469 384.568 151.594 391.224 151.844 397.568C151.875 398.38 152.172 399.083 152.734 399.677C153.297 400.24 154.125 400.677 155.219 400.99C156.312 401.302 157.219 401.536 157.938 401.693C158.656 401.818 159.594 401.943 160.75 402.068C160.938 402.443 161.031 402.833 161.031 403.24C161.031 403.552 160.938 403.896 160.75 404.271C156.062 404.083 151.422 403.99 146.828 403.99C143.016 403.99 139.047 404.083 134.922 404.271C134.797 403.771 134.734 403.427 134.734 403.24C134.734 403.083 134.797 402.693 134.922 402.068C135.953 401.943 136.797 401.818 137.453 401.693C138.109 401.536 138.922 401.302 139.891 400.99C140.859 400.677 141.594 400.24 142.094 399.677C142.594 399.083 142.859 398.38 142.891 397.568C143.016 394.474 143.078 390.724 143.078 386.318C143.078 384.849 143.062 382.349 143.031 378.818C143 375.286 142.984 372.193 142.984 369.536C141.203 368.443 138.203 367.802 133.984 367.615C133.859 367.115 133.797 366.724 133.797 366.443C133.797 366.255 133.859 365.911 133.984 365.411ZM198.531 361.38C201.625 361.38 204.406 361.927 206.875 363.021C209.375 364.115 211.5 365.63 213.25 367.568C215 369.505 216.344 371.833 217.281 374.552C218.219 377.24 218.688 380.177 218.688 383.365C218.688 389.865 216.859 395.146 213.203 399.208C209.578 403.302 204.688 405.349 198.531 405.349C195.469 405.349 192.688 404.818 190.188 403.755C187.719 402.661 185.609 401.146 183.859 399.208C182.109 397.24 180.75 394.911 179.781 392.224C178.844 389.536 178.375 386.583 178.375 383.365C178.375 380.177 178.844 377.24 179.781 374.552C180.719 371.833 182.047 369.505 183.766 367.568C185.516 365.63 187.641 364.115 190.141 363.021C192.641 361.927 195.438 361.38 198.531 361.38ZM198.531 364.427C195.344 364.427 192.797 365.974 190.891 369.068C189.016 372.161 188.078 376.927 188.078 383.365C188.078 389.802 189.016 394.568 190.891 397.661C192.797 400.724 195.344 402.255 198.531 402.255C201.719 402.255 204.25 400.708 206.125 397.615C208.031 394.521 208.984 389.771 208.984 383.365C208.984 380.146 208.734 377.349 208.234 374.974C207.734 372.599 207.031 370.63 206.125 369.068C205.219 367.505 204.125 366.349 202.844 365.599C201.562 364.818 200.125 364.427 198.531 364.427ZM252.859 402.068C253.047 402.443 253.141 402.833 253.141 403.24C253.141 403.552 253.047 403.896 252.859 404.271C248.734 404.083 244.734 403.99 240.859 403.99C237.047 403.99 233.078 404.083 228.953 404.271C228.828 403.771 228.766 403.427 228.766 403.24C228.766 403.083 228.828 402.693 228.953 402.068C229.984 401.943 230.828 401.818 231.484 401.693C232.141 401.536 232.953 401.302 233.922 400.99C234.891 400.677 235.625 400.24 236.125 399.677C236.625 399.083 236.891 398.38 236.922 397.568C237.047 394.474 237.109 390.724 237.109 386.318C237.109 384.849 237.094 382.349 237.062 378.818C237.031 375.286 237.016 372.193 237.016 369.536C235.234 368.443 232.234 367.802 228.016 367.615C227.891 367.115 227.828 366.724 227.828 366.443C227.828 366.255 227.891 365.911 228.016 365.411C234.078 364.786 239.359 363.505 243.859 361.568C244.641 361.88 245.188 362.286 245.5 362.786V370.193C248.531 367.536 251.438 365.411 254.219 363.818C257 362.193 259.812 361.38 262.656 361.38C266.219 361.38 268.734 362.38 270.203 364.38C271.703 366.38 272.484 369.505 272.547 373.755L273.016 397.568C273.047 398.38 273.281 399.083 273.719 399.677C274.188 400.24 274.844 400.677 275.688 400.99C276.562 401.302 277.281 401.536 277.844 401.693C278.406 401.818 279.141 401.943 280.047 402.068C280.172 402.693 280.234 403.115 280.234 403.333C280.234 403.583 280.172 403.896 280.047 404.271C276.016 404.083 272.297 403.99 268.891 403.99C265.578 403.99 261.906 404.083 257.875 404.271C257.75 403.771 257.688 403.396 257.688 403.146C257.688 402.927 257.75 402.568 257.875 402.068C258.688 401.943 259.359 401.818 259.891 401.693C260.453 401.536 261.078 401.302 261.766 400.99C262.484 400.677 263.016 400.24 263.359 399.677C263.734 399.083 263.922 398.38 263.922 397.568L264.016 375.302C264.016 369.646 262.312 366.818 258.906 366.818C255.719 366.818 251.25 368.943 245.5 373.193C245.5 382.286 245.625 390.411 245.875 397.568C245.906 398.38 246.141 399.083 246.578 399.677C247.047 400.24 247.703 400.677 248.547 400.99C249.391 401.302 250.094 401.536 250.656 401.693C251.219 401.818 251.953 401.943 252.859 402.068ZM308.594 361.38C311.688 361.38 314.469 361.927 316.938 363.021C319.438 364.115 321.562 365.63 323.312 367.568C325.062 369.505 326.406 371.833 327.344 374.552C328.281 377.24 328.75 380.177 328.75 383.365C328.75 389.865 326.922 395.146 323.266 399.208C319.641 403.302 314.75 405.349 308.594 405.349C305.531 405.349 302.75 404.818 300.25 403.755C297.781 402.661 295.672 401.146 293.922 399.208C292.172 397.24 290.812 394.911 289.844 392.224C288.906 389.536 288.438 386.583 288.438 383.365C288.438 380.177 288.906 377.24 289.844 374.552C290.781 371.833 292.109 369.505 293.828 367.568C295.578 365.63 297.703 364.115 300.203 363.021C302.703 361.927 305.5 361.38 308.594 361.38ZM308.594 364.427C305.406 364.427 302.859 365.974 300.953 369.068C299.078 372.161 298.141 376.927 298.141 383.365C298.141 389.802 299.078 394.568 300.953 397.661C302.859 400.724 305.406 402.255 308.594 402.255C311.781 402.255 314.312 400.708 316.188 397.615C318.094 394.521 319.047 389.771 319.047 383.365C319.047 380.146 318.797 377.349 318.297 374.974C317.797 372.599 317.094 370.63 316.188 369.068C315.281 367.505 314.188 366.349 312.906 365.599C311.625 364.818 310.188 364.427 308.594 364.427ZM376.281 333.536C378.75 333.536 381.203 333.708 383.641 334.052C386.109 334.365 388.469 334.755 390.719 335.224C393 335.661 395.156 336.099 397.188 336.536C399.219 336.974 401.047 337.286 402.672 337.474C402.297 338.599 402.109 340.583 402.109 343.427C402.109 348.958 402.938 353.755 404.594 357.818C404.406 358.38 403.828 358.724 402.859 358.849L400.844 354.536C399.844 352.38 398.641 350.255 397.234 348.161C395.828 346.036 394.141 344.146 392.172 342.49C390.203 340.802 387.906 339.443 385.281 338.411C382.688 337.38 379.688 336.865 376.281 336.865C373.344 336.865 370.734 337.349 368.453 338.318C366.172 339.286 364.172 340.599 362.453 342.255C360.734 343.88 359.281 345.786 358.094 347.974C356.906 350.13 355.938 352.427 355.188 354.865C354.469 357.302 353.938 359.802 353.594 362.365C353.281 364.927 353.125 367.411 353.125 369.818C353.125 373.818 353.641 377.646 354.672 381.302C355.734 384.958 357.375 388.193 359.594 391.005C361.812 393.786 364.625 396.005 368.031 397.661C371.469 399.318 375.562 400.146 380.312 400.146C389.406 400.146 396.281 397.302 400.938 391.615C401.438 391.615 401.844 391.755 402.156 392.036C402.5 392.318 402.672 392.661 402.672 393.068C401.172 395.286 399.344 397.208 397.188 398.833C395.062 400.458 392.797 401.802 390.391 402.865C387.984 403.896 385.547 404.661 383.078 405.161C380.641 405.661 378.375 405.911 376.281 405.911C374 405.911 371.531 405.661 368.875 405.161C366.25 404.693 363.609 403.896 360.953 402.771C358.328 401.646 355.797 400.177 353.359 398.365C350.953 396.521 348.812 394.271 346.938 391.615C345.062 388.927 343.562 385.786 342.438 382.193C341.312 378.599 340.75 374.474 340.75 369.818C340.75 365.13 341.312 360.99 342.438 357.396C343.562 353.771 345.062 350.615 346.938 347.927C348.844 345.24 351.016 342.99 353.453 341.177C355.922 339.333 358.469 337.849 361.094 336.724C363.719 335.568 366.344 334.755 368.969 334.286C371.594 333.786 374.031 333.536 376.281 333.536ZM404.078 362.411C408.203 362.599 412.375 362.693 416.594 362.693C420.438 362.693 424.375 362.599 428.406 362.411C428.531 362.911 428.594 363.302 428.594 363.583C428.594 363.771 428.531 364.115 428.406 364.615C427.469 364.677 426.719 364.755 426.156 364.849C425.594 364.911 424.859 365.036 423.953 365.224C423.078 365.411 422.406 365.693 421.938 366.068C421.5 366.443 421.281 366.896 421.281 367.427C421.281 367.708 421.406 368.286 421.656 369.161L431.172 392.833H431.453L440.5 369.161C440.812 368.38 440.969 367.708 440.969 367.146C440.969 365.708 439.172 364.865 435.578 364.615C435.453 364.115 435.391 363.771 435.391 363.583C435.391 363.302 435.453 362.911 435.578 362.411C439.234 362.599 441.516 362.693 442.422 362.693C445.047 362.693 448.375 362.599 452.406 362.411C452.531 362.786 452.594 363.115 452.594 363.396C452.594 363.583 452.531 363.99 452.406 364.615C448.5 364.771 445.969 366.286 444.812 369.161L430.328 403.802H430.422L425.219 417.443C423.281 422.505 421.469 425.927 419.781 427.708C418.125 429.49 416 430.38 413.406 430.38C411.312 430.38 409.562 429.755 408.156 428.505C406.781 427.255 406.094 425.615 406.094 423.583C406.094 421.74 406.609 420.286 407.641 419.224C408.672 418.161 409.953 417.63 411.484 417.63C412.891 417.63 413.969 418.052 414.719 418.896C415.5 419.74 415.891 420.693 415.891 421.755C415.891 423.255 415.219 424.443 413.875 425.318C414.031 426.005 414.547 426.349 415.422 426.349C416.422 426.349 417.359 425.771 418.234 424.615C419.109 423.49 420.25 421.068 421.656 417.349L426.859 403.99L412.234 369.161C411.891 368.38 411.406 367.708 410.781 367.146C410.156 366.552 409.391 366.099 408.484 365.786C407.609 365.443 406.875 365.208 406.281 365.083C405.688 364.927 404.953 364.771 404.078 364.615C403.953 364.365 403.891 364.021 403.891 363.583C403.891 363.115 403.953 362.724 404.078 362.411ZM492.062 391.802C492.812 391.958 493.422 392.302 493.891 392.833C492.328 397.021 489.906 400.161 486.625 402.255C483.344 404.318 479.781 405.349 475.938 405.349C474.031 405.349 472.172 405.099 470.359 404.599C468.547 404.13 466.781 403.349 465.062 402.255C463.375 401.161 461.891 399.818 460.609 398.224C459.359 396.599 458.344 394.583 457.562 392.177C456.812 389.74 456.438 387.052 456.438 384.115C456.438 377.333 458.516 371.849 462.672 367.661C466.828 363.474 472.016 361.38 478.234 361.38C482.609 361.38 486.172 362.333 488.922 364.24C491.703 366.115 493.094 368.521 493.094 371.458C493.094 373.115 492.547 374.49 491.453 375.583C490.359 376.677 489.016 377.224 487.422 377.224C485.734 377.224 484.375 376.74 483.344 375.771C482.312 374.771 481.797 373.615 481.797 372.302C481.797 369.927 483 368.427 485.406 367.802C485.188 367.083 484.484 366.349 483.297 365.599C482.109 364.818 480.422 364.427 478.234 364.427C477.109 364.427 476.047 364.568 475.047 364.849C474.047 365.099 472.969 365.646 471.812 366.49C470.688 367.333 469.719 368.443 468.906 369.818C468.125 371.193 467.469 373.115 466.938 375.583C466.406 378.021 466.141 380.865 466.141 384.115C466.141 386.302 466.359 388.286 466.797 390.068C467.266 391.849 467.984 393.458 468.953 394.896C469.922 396.333 471.25 397.458 472.938 398.271C474.625 399.083 476.609 399.49 478.891 399.49C480.328 399.49 481.688 399.302 482.969 398.927C484.25 398.521 485.281 398.099 486.062 397.661C486.875 397.224 487.734 396.568 488.641 395.693C489.578 394.786 490.203 394.146 490.516 393.771C490.828 393.365 491.344 392.708 492.062 391.802ZM499.891 336.583C505.828 336.021 511.094 334.74 515.688 332.74C516.531 333.083 517.078 333.505 517.328 334.005C517.328 369.411 517.453 390.599 517.703 397.568C517.734 398.224 517.922 398.818 518.266 399.349C518.641 399.849 519.047 400.255 519.484 400.568C519.922 400.849 520.516 401.115 521.266 401.365C522.016 401.583 522.594 401.74 523 401.833C523.438 401.896 524.016 401.974 524.734 402.068C524.922 402.443 525.016 402.833 525.016 403.24C525.016 403.646 524.922 403.99 524.734 404.271C520.609 404.083 516.609 403.99 512.734 403.99C508.922 403.99 504.953 404.083 500.828 404.271C500.703 403.771 500.641 403.427 500.641 403.24C500.641 403.083 500.703 402.693 500.828 402.068C501.859 401.943 502.688 401.818 503.312 401.693C503.969 401.536 504.781 401.302 505.75 400.99C506.75 400.677 507.5 400.24 508 399.677C508.5 399.083 508.766 398.38 508.797 397.568C508.922 394.474 508.984 387.552 508.984 376.802C508.984 371.833 508.969 365.068 508.938 356.505C508.906 347.943 508.891 342.677 508.891 340.708C507.109 339.677 504.109 339.036 499.891 338.786C499.734 338.38 499.656 338.005 499.656 337.661C499.656 337.349 499.734 336.99 499.891 336.583ZM568.234 379.146H542.688C542.562 381.021 542.5 382.677 542.5 384.115C542.594 388.771 543.953 392.505 546.578 395.318C549.203 398.099 552.719 399.49 557.125 399.49C558.312 399.49 559.422 399.365 560.453 399.115C561.484 398.833 562.328 398.521 562.984 398.177C563.672 397.833 564.375 397.333 565.094 396.677C565.812 396.021 566.328 395.505 566.641 395.13C566.984 394.724 567.438 394.13 568 393.349C568.562 392.536 568.938 392.021 569.125 391.802C569.875 391.958 570.484 392.302 570.953 392.833C569.391 397.021 566.969 400.161 563.688 402.255C560.406 404.318 556.844 405.349 553 405.349C551.094 405.349 549.234 405.099 547.422 404.599C545.641 404.13 543.906 403.349 542.219 402.255C540.531 401.161 539.062 399.818 537.812 398.224C536.562 396.599 535.562 394.583 534.812 392.177C534.062 389.74 533.688 387.052 533.688 384.115C533.688 377.521 535.703 372.083 539.734 367.802C543.766 363.521 548.719 361.38 554.594 361.38C557.188 361.38 559.438 361.755 561.344 362.505C563.281 363.224 564.781 364.208 565.844 365.458C566.938 366.708 567.734 368.083 568.234 369.583C568.766 371.052 569.031 372.63 569.031 374.318C569.031 375.88 568.766 377.49 568.234 379.146ZM553.469 364.427C551.312 364.427 549.266 365.38 547.328 367.286C545.422 369.193 544.047 372.083 543.203 375.958H560.078C560.391 374.771 560.547 373.74 560.547 372.865C560.547 370.427 559.984 368.411 558.859 366.818C557.734 365.224 555.938 364.427 553.469 364.427Z" fill="#A9927D"/>
</svg>
